ply
format ascii 1.0
comment VCGLIB generated
element vertex 636
property float x
property float y
property float z
property float nx
property float ny
property float nz
property uchar red
property uchar green
property uchar blue
property uchar alpha
element face 212
property list uchar int vertex_indices
end_header
75.545 -81.8253 -58.3959 0.116831 0.119699 0.9859121 0 0 255 255 
52.688 50.2887 -71.7272 0.116831 0.119699 0.9859121 0 0 255 255 
31.2937 -71.0811 -54.4565 0.116831 0.119699 0.9859121 0 0 255 255 
75.545 -81.8253 -58.3959 0.9542173 -0.2469011 0.168847 0 0 255 255 
130.367 63.5718 -155.606 0.9542173 -0.2469011 0.168847 0 0 255 255 
123.444 79.4406 -93.276 0.9542173 -0.2469011 0.168847 0 0 255 255 
80.3784 -105.648 -116.807 0.60735 -0.343641 -0.716266 0 0 255 255 
81.2984 26.5265 -179.44 0.60735 -0.343641 -0.716266 0 0 255 255 
130.367 63.5718 -155.606 0.60735 -0.343641 -0.716266 0 0 255 255 
48.941 -102.956 -135.072 -0.5920671 -0.124855 -0.7961581 0 0 255 255 
12.4731 27.3185 -128.382 -0.5920671 -0.124855 -0.7961581 0 0 255 255 
81.2984 26.5265 -179.44 -0.5920671 -0.124855 -0.7961581 0 0 255 255 
31.2937 -71.0811 -54.4565 -0.8530583 0.1991841 0.4823042 0 0 255 255 
12.4731 27.3185 -128.382 -0.8530583 0.1991841 0.4823042 0 0 255 255 
1.22746 -76.37 -105.451 -0.8530583 0.1991841 0.4823042 0 0 255 255 
75.545 -81.8253 -58.3959 -0.114094 -0.720646 0.6838509 0 0 255 255 
31.2937 -71.0811 -54.4565 -0.114094 -0.720646 0.6838509 0 0 255 255 
43.3807 -106.36 -89.6174 -0.114094 -0.720646 0.6838509 0 0 255 255 
80.3784 -105.648 -116.807 0.297259 -0.875241 0.381563 0 0 255 255 
75.545 -81.8253 -58.3959 0.297259 -0.875241 0.381563 0 0 255 255 
43.3807 -106.36 -89.6174 0.297259 -0.875241 0.381563 0 0 255 255 
48.941 -102.956 -135.072 -0.039177 -0.9960729 -0.07939799 0 0 255 255 
80.3784 -105.648 -116.807 -0.039177 -0.9960729 -0.07939799 0 0 255 255 
43.3807 -106.36 -89.6174 -0.039177 -0.9960729 -0.07939799 0 0 255 255 
1.22746 -76.37 -105.451 -0.542398 -0.8302311 -0.128533 0 0 255 255 
48.941 -102.956 -135.072 -0.542398 -0.8302311 -0.128533 0 0 255 255 
43.3807 -106.36 -89.6174 -0.542398 -0.8302311 -0.128533 0 0 255 255 
31.2937 -71.0811 -54.4565 -0.6247029 -0.6481109 0.435544 0 0 255 255 
1.22746 -76.37 -105.451 -0.6247029 -0.6481109 0.435544 0 0 255 255 
43.3807 -106.36 -89.6174 -0.6247029 -0.6481109 0.435544 0 0 255 255 
129.197 292.301 -178.206 0.6621046 0.3822908 0.6445706 0 0 255 255 
141.583 188.144 -129.154 0.6621046 0.3822908 0.6445706 0 0 255 255 
135.335 296.381 -186.93 0.6621046 0.3822908 0.6445706 0 0 255 255 
141.583 188.144 -129.154 0.9883129 0.08600199 0.125862 0 0 255 255 
147.242 189.459 -174.495 0.9883129 0.08600199 0.125862 0 0 255 255 
140.579 284.167 -186.888 0.9883129 0.08600199 0.125862 0 0 255 255 
147.242 189.459 -174.495 0.577495 -0.065853 -0.813734 0 0 255 255 
108.532 191.566 -202.138 0.577495 -0.065853 -0.813734 0 0 255 255 
140.579 284.167 -186.888 0.577495 -0.065853 -0.813734 0 0 255 255 
108.532 191.566 -202.138 -0.5928451 0.26208 -0.7614781 0 0 255 255 
63.5615 196.989 -165.26 -0.5928451 0.26208 -0.7614781 0 0 255 255 
135.335 296.381 -186.93 -0.5928451 0.26208 -0.7614781 0 0 255 255 
63.5615 196.989 -165.26 -0.7988549 0.5059319 -0.325367 0 0 255 255 
129.197 292.301 -178.206 -0.7988549 0.5059319 -0.325367 0 0 255 255 
135.335 296.381 -186.93 -0.7988549 0.5059319 -0.325367 0 0 255 255 
123.444 79.4406 -93.276 0.1784371 0.2669521 0.9470464 0 0 255 255 
84.763 202.727 -120.74 0.1784371 0.2669521 0.9470464 0 0 255 255 
52.688 50.2887 -71.7272 0.1784371 0.2669521 0.9470464 0 0 255 255 
130.367 63.5718 -155.606 0.9831877 -0.118091 0.139271 0 0 255 255 
141.583 188.144 -129.154 0.9831877 -0.118091 0.139271 0 0 255 255 
123.444 79.4406 -93.276 0.9831877 -0.118091 0.139271 0 0 255 255 
130.367 63.5718 -155.606 0.5627838 -0.1959349 -0.8030467 0 0 255 255 
108.532 191.566 -202.138 0.5627838 -0.1959349 -0.8030467 0 0 255 255 
147.242 189.459 -174.495 0.5627838 -0.1959349 -0.8030467 0 0 255 255 
81.2984 26.5265 -179.44 -0.6342248 -0.001674 -0.7731468 0 0 255 255 
63.5615 196.989 -165.26 -0.6342248 -0.001674 -0.7731468 0 0 255 255 
108.532 191.566 -202.138 -0.6342248 -0.001674 -0.7731468 0 0 255 255 
52.688 50.2887 -71.7272 -0.8256572 0.3455391 0.4459741 0 0 255 255 
63.5615 196.989 -165.26 -0.8256572 0.3455391 0.4459741 0 0 255 255 
12.4731 27.3185 -128.382 -0.8256572 0.3455391 0.4459741 0 0 255 255 
140.579 284.167 -186.888 0.2111009 0.08726997 -0.9735606 0 0 255 255 
108.532 191.566 -202.138 0.2111009 0.08726997 -0.9735606 0 0 255 255 
135.335 296.381 -186.93 0.2111009 0.08726997 -0.9735606 0 0 255 255 
141.583 188.144 -129.154 0.7720709 0.33339 0.5410709 0 0 255 255 
140.579 284.167 -186.888 0.7720709 0.33339 0.5410709 0 0 255 255 
135.335 296.381 -186.93 0.7720709 0.33339 0.5410709 0 0 255 255 
63.5615 196.989 -165.26 -0.7685106 0.5689847 0.2926568 0 0 255 255 
84.763 202.727 -120.74 -0.7685106 0.5689847 0.2926568 0 0 255 255 
129.197 292.301 -178.206 -0.7685106 0.5689847 0.2926568 0 0 255 255 
84.763 202.727 -120.74 0.2404661 0.4368191 0.8668132 0 0 255 255 
141.583 188.144 -129.154 0.2404661 0.4368191 0.8668132 0 0 255 255 
129.197 292.301 -178.206 0.2404661 0.4368191 0.8668132 0 0 255 255 
57.5559 101.225 76.7492 -0.6341161 0.128552 0.762477 0 0 255 255 
61.1914 32.9825 91.2782 -0.6341161 0.128552 0.762477 0 0 255 255 
113.63 24.035 136.397 -0.6341161 0.128552 0.762477 0 0 255 255 
273.386 397.167 61.2142 0.9929254 -0.09118804 0.07605203 0 0 255 255 
246.578 121.954 81.2316 0.9929254 -0.09118804 0.07605203 0 0 255 255 
251.068 116.861 16.5033 0.9929254 -0.09118804 0.07605203 0 0 255 255 
158.011 147.952 156.569 -0.6575691 0.216392 0.7216491 0 0 255 255 
166.66 420.275 82.7917 -0.6575691 0.216392 0.7216491 0 0 255 255 
61.123 116.223 77.7987 -0.6575691 0.216392 0.7216491 0 0 255 255 
113.63 24.035 136.397 -0.5329571 -0.500753 0.682058 0 0 255 255 
62.3784 -24.5934 60.6476 -0.5329571 -0.500753 0.682058 0 0 255 255 
153.949 -79.8517 91.6311 -0.5329571 -0.500753 0.682058 0 0 255 255 
203.939 -84.3789 30.5105 0.6265516 -0.5490827 0.5531197 0 0 255 255 
200.539 8.42081 126.485 0.6265516 -0.5490827 0.5531197 0 0 255 255 
153.949 -79.8517 91.6311 0.6265516 -0.5490827 0.5531197 0 0 255 255 
153.949 -79.8517 91.6311 -0.478449 -0.280178 0.8322181 0 0 255 255 
114.337 -114 57.361 -0.478449 -0.280178 0.8322181 0 0 255 255 
144.554 -112.663 75.1833 -0.478449 -0.280178 0.8322181 0 0 255 255 
159.708 -93.851 -3.10197 -0.6790212 -0.3713321 -0.6332793 0 0 255 255 
114.337 -114 57.361 -0.6790212 -0.3713321 -0.6332793 0 0 255 255 
62.3784 -24.5934 60.6476 -0.6790212 -0.3713321 -0.6332793 0 0 255 255 
203.939 -84.3789 30.5105 0.6231784 -0.6692434 0.4046752 0 0 255 255 
144.554 -112.663 75.1833 0.6231784 -0.6692434 0.4046752 0 0 255 255 
154.717 -123.721 41.2456 0.6231784 -0.6692434 0.4046752 0 0 255 255 
273.386 397.167 61.2142 0.5722474 0.4282083 -0.6994074 0 0 255 255 
227.892 452.684 57.9806 0.5722474 0.4282083 -0.6994074 0 0 255 255 
233.428 466.208 70.7905 0.5722474 0.4282083 -0.6994074 0 0 255 255 
227.278 397.489 20.0891 -0.1821791 0.5578802 -0.8096793 0 0 255 255 
191.424 406.231 34.1794 -0.1821791 0.5578802 -0.8096793 0 0 255 255 
227.892 452.684 57.9806 -0.1821791 0.5578802 -0.8096793 0 0 255 255 
166.66 420.275 82.7917 -0.4887681 0.8008741 0.3459861 0 0 255 255 
235.163 450.808 108.888 -0.4887681 0.8008741 0.3459861 0 0 255 255 
233.428 466.208 70.7905 -0.4887681 0.8008741 0.3459861 0 0 255 255 
235.163 450.808 108.888 0.8642661 0.4788211 0.15419 0 0 255 255 
273.386 397.167 61.2142 0.8642661 0.4788211 0.15419 0 0 255 255 
233.428 466.208 70.7905 0.8642661 0.4788211 0.15419 0 0 255 255 
187.083 100.997 -34.97 -0.3334419 0.118627 -0.9352776 0 0 255 255 
171.9 21.6893 -39.6161 -0.3334419 0.118627 -0.9352776 0 0 255 255 
110.286 102.942 -7.34394 -0.3334419 0.118627 -0.9352776 0 0 255 255 
169.234 216.308 -25.9252 -0.337932 0.021498 -0.940925 0 0 255 255 
187.083 100.997 -34.97 -0.337932 0.021498 -0.940925 0 0 255 255 
110.286 102.942 -7.34394 -0.337932 0.021498 -0.940925 0 0 255 255 
219.929 123.719 133.814 0.7858917 0.010515 0.6182747 0 0 255 255 
273.386 397.167 61.2142 0.7858917 0.010515 0.6182747 0 0 255 255 
235.163 450.808 108.888 0.7858917 0.010515 0.6182747 0 0 255 255 
200.539 8.42081 126.485 0.8756933 -0.1758621 0.4497041 0 0 255 255 
246.578 121.954 81.2316 0.8756933 -0.1758621 0.4497041 0 0 255 255 
219.929 123.719 133.814 0.8756933 -0.1758621 0.4497041 0 0 255 255 
251.068 116.861 16.5033 0.9702615 0.2371211 0.04864402 0 0 255 255 
246.578 121.954 81.2316 0.9702615 0.2371211 0.04864402 0 0 255 255 
265.741 54.1383 29.5862 0.9702615 0.2371211 0.04864402 0 0 255 255 
159.708 -93.851 -3.10197 0.247156 -0.8163331 -0.522029 0 0 255 255 
154.717 -123.721 41.2456 0.247156 -0.8163331 -0.522029 0 0 255 255 
142.456 -123.218 34.6534 0.247156 -0.8163331 -0.522029 0 0 255 255 
158.011 147.952 156.569 0.3629829 0.05398299 0.9302307 0 0 255 255 
219.929 123.719 133.814 0.3629829 0.05398299 0.9302307 0 0 255 255 
235.163 450.808 108.888 0.3629829 0.05398299 0.9302307 0 0 255 255 
113.63 24.035 136.397 0.2497991 -0.2420851 0.9375475 0 0 255 255 
219.929 123.719 133.814 0.2497991 -0.2420851 0.9375475 0 0 255 255 
158.011 147.952 156.569 0.2497991 -0.2420851 0.9375475 0 0 255 255 
153.949 -79.8517 91.6311 0.03634199 -0.3835429 0.9228078 0 0 255 255 
200.539 8.42081 126.485 0.03634199 -0.3835429 0.9228078 0 0 255 255 
113.63 24.035 136.397 0.03634199 -0.3835429 0.9228078 0 0 255 255 
61.1914 32.9825 91.2782 -0.9983028 -0.04542399 0.03644499 0 0 255 255 
57.5559 101.225 76.7492 -0.9983028 -0.04542399 0.03644499 0 0 255 255 
59.3849 37.4849 47.405 -0.9983028 -0.04542399 0.03644499 0 0 255 255 
62.3784 -24.5934 60.6476 -0.9985046 -0.04025998 0.03698298 0 0 255 255 
61.1914 32.9825 91.2782 -0.9985046 -0.04025998 0.03698298 0 0 255 255 
59.3849 37.4849 47.405 -0.9985046 -0.04025998 0.03698298 0 0 255 255 
169.234 216.308 -25.9252 -0.2781979 0.3192019 -0.9059337 0 0 255 255 
191.424 406.231 34.1794 -0.2781979 0.3192019 -0.9059337 0 0 255 255 
227.278 397.489 20.0891 -0.2781979 0.3192019 -0.9059337 0 0 255 255 
227.892 452.684 57.9806 -0.5543349 0.6806268 -0.4790199 0 0 255 255 
166.66 420.275 82.7917 -0.5543349 0.6806268 -0.4790199 0 0 255 255 
233.428 466.208 70.7905 -0.5543349 0.6806268 -0.4790199 0 0 255 255 
62.3784 -24.5934 60.6476 -0.6235731 -0.174992 -0.7619281 0 0 255 255 
171.9 21.6893 -39.6161 -0.6235731 -0.174992 -0.7619281 0 0 255 255 
159.708 -93.851 -3.10197 -0.6235731 -0.174992 -0.7619281 0 0 255 255 
110.286 102.942 -7.34394 -0.8261501 0.23241 -0.5132851 0 0 255 255 
57.5559 101.225 76.7492 -0.8261501 0.23241 -0.5132851 0 0 255 255 
61.123 116.223 77.7987 -0.8261501 0.23241 -0.5132851 0 0 255 255 
61.123 116.223 77.7987 -0.7872699 0.282264 -0.548209 0 0 255 255 
166.66 420.275 82.7917 -0.7872699 0.282264 -0.548209 0 0 255 255 
169.234 216.308 -25.9252 -0.7872699 0.282264 -0.548209 0 0 255 255 
251.068 116.861 16.5033 0.542463 0.090036 -0.835241 0 0 255 255 
169.234 216.308 -25.9252 0.542463 0.090036 -0.835241 0 0 255 255 
273.386 397.167 61.2142 0.542463 0.090036 -0.835241 0 0 255 255 
265.741 54.1383 29.5862 0.6289922 -0.014985 -0.7772672 0 0 255 255 
187.083 100.997 -34.97 0.6289922 -0.014985 -0.7772672 0 0 255 255 
251.068 116.861 16.5033 0.6289922 -0.014985 -0.7772672 0 0 255 255 
110.286 102.942 -7.34394 -0.617825 -0.162969 -0.7692421 0 0 255 255 
171.9 21.6893 -39.6161 -0.617825 -0.162969 -0.7692421 0 0 255 255 
59.3849 37.4849 47.405 -0.617825 -0.162969 -0.7692421 0 0 255 255 
265.741 54.1383 29.5862 0.8417137 -0.3729409 0.3904268 0 0 255 255 
200.539 8.42081 126.485 0.8417137 -0.3729409 0.3904268 0 0 255 255 
203.939 -84.3789 30.5105 0.8417137 -0.3729409 0.3904268 0 0 255 255 
171.9 21.6893 -39.6161 0.6173357 -0.2955498 -0.7290726 0 0 255 255 
203.939 -84.3789 30.5105 0.6173357 -0.2955498 -0.7290726 0 0 255 255 
159.708 -93.851 -3.10197 0.6173357 -0.2955498 -0.7290726 0 0 255 255 
144.554 -112.663 75.1833 -0.176962 -0.9501789 0.256602 0 0 255 255 
142.456 -123.218 34.6534 -0.176962 -0.9501789 0.256602 0 0 255 255 
154.717 -123.721 41.2456 -0.176962 -0.9501789 0.256602 0 0 255 255 
-41.8396 293.693 126.857 0.269893 0.17396 0.9470459 0 0 255 255 
-86.088 499.78 101.612 0.269893 0.17396 0.9470459 0 0 255 255 
-81.0573 277.614 140.987 0.269893 0.17396 0.9470459 0 0 255 255 
11.9177 237.464 89.8112 0.936721 0.086083 0.339328 0 0 255 255 
7.50615 545.543 23.8338 0.936721 0.086083 0.339328 0 0 255 255 
-25.5915 562.528 110.892 0.936721 0.086083 0.339328 0 0 255 255 
11.9177 237.464 89.8112 0.5770109 0.013623 0.8166229 0 0 255 255 
-25.5915 562.528 110.892 0.5770109 0.013623 0.8166229 0 0 255 255 
-41.8396 293.693 126.857 0.5770109 0.013623 0.8166229 0 0 255 255 
-136.218 252.769 45.6928 -0.995842 0.036128 -0.083628 0 0 255 255 
-135.43 182.48 5.93996 -0.995842 0.036128 -0.083628 0 0 255 255 
-141.476 131.454 55.8919 -0.995842 0.036128 -0.083628 0 0 255 255 
7.50615 545.543 23.8338 0.256837 0.201028 -0.9453161 0 0 255 255 
8.94276 283.356 -31.5317 0.256837 0.201028 -0.9453161 0 0 255 255 
-59.6948 541.954 4.81259 0.256837 0.201028 -0.9453161 0 0 255 255 
-59.6948 541.954 4.81259 0.197174 0.56275 -0.802767 0 0 255 255 
-36.8593 616.53 62.6996 0.197174 0.56275 -0.802767 0 0 255 255 
7.50615 545.543 23.8338 0.197174 0.56275 -0.802767 0 0 255 255 
7.50615 545.543 23.8338 0.8271238 0.5201009 0.212982 0 0 255 255 
-37.4902 595.637 76.2477 0.8271238 0.5201009 0.212982 0 0 255 255 
-25.5915 562.528 110.892 0.8271238 0.5201009 0.212982 0 0 255 255 
-101.665 513.278 61.5223 -0.8459939 0.31069 0.4333199 0 0 255 255 
-117.732 468.994 61.9045 -0.8459939 0.31069 0.4333199 0 0 255 255 
-86.088 499.78 101.612 -0.8459939 0.31069 0.4333199 0 0 255 255 
8.94276 283.356 -31.5317 0.019062 0.14411 -0.9893781 0 0 255 255 
-77.2571 316.701 -28.3357 0.019062 0.14411 -0.9893781 0 0 255 255 
-59.6948 541.954 4.81259 0.019062 0.14411 -0.9893781 0 0 255 255 
-1.3999 56.8315 -55.2228 -0.362274 -0.141255 -0.9213059 0 0 255 255 
-63.9568 16.1773 -24.3912 -0.362274 -0.141255 -0.9213059 0 0 255 255 
-118.376 175.268 -27.3843 -0.362274 -0.141255 -0.9213059 0 0 255 255 
-49.0965 621.642 60.9733 -0.8409318 0.3550669 -0.4083639 0 0 255 255 
-79.0543 569.926 77.6973 -0.8409318 0.3550669 -0.4083639 0 0 255 255 
-52.2664 619.802 65.9006 -0.8409318 0.3550669 -0.4083639 0 0 255 255 
-79.0543 569.926 77.6973 -0.814928 0.434718 -0.383292 0 0 255 255 
-59.6948 541.954 4.81259 -0.814928 0.434718 -0.383292 0 0 255 255 
-101.665 513.278 61.5223 -0.814928 0.434718 -0.383292 0 0 255 255 
-101.665 513.278 61.5223 -0.8331289 0.298262 -0.4657639 0 0 255 255 
-59.6948 541.954 4.81259 -0.8331289 0.298262 -0.4657639 0 0 255 255 
-117.732 468.994 61.9045 -0.8331289 0.298262 -0.4657639 0 0 255 255 
-117.732 468.994 61.9045 -0.8222131 0.112133 -0.5580251 0 0 255 255 
-77.2571 316.701 -28.3357 -0.8222131 0.112133 -0.5580251 0 0 255 255 
-136.218 252.769 45.6928 -0.8222131 0.112133 -0.5580251 0 0 255 255 
-136.218 252.769 45.6928 -0.8341144 0.2644211 -0.4840812 0 0 255 255 
-118.376 175.268 -27.3843 -0.8341144 0.2644211 -0.4840812 0 0 255 255 
-135.43 182.48 5.93996 -0.8341144 0.2644211 -0.4840812 0 0 255 255 
-118.376 175.268 -27.3843 0.044995 0.270482 -0.961673 0 0 255 255 
28.3044 145.535 -28.8841 0.044995 0.270482 -0.961673 0 0 255 255 
-1.3999 56.8315 -55.2228 0.044995 0.270482 -0.961673 0 0 255 255 
-36.8593 616.53 62.6996 0.277971 0.516722 0.8097719 0 0 255 255 
-52.2664 619.802 65.9006 0.277971 0.516722 0.8097719 0 0 255 255 
-37.4902 595.637 76.2477 0.277971 0.516722 0.8097719 0 0 255 255 
-118.376 175.268 -27.3843 -0.017577 -0.036309 -0.999186 0 0 255 255 
30.6031 188.456 -30.4842 -0.017577 -0.036309 -0.999186 0 0 255 255 
28.3044 145.535 -28.8841 -0.017577 -0.036309 -0.999186 0 0 255 255 
8.94276 283.356 -31.5317 -0.04529501 -0.021362 -0.9987453 0 0 255 255 
30.6031 188.456 -30.4842 -0.04529501 -0.021362 -0.9987453 0 0 255 255 
-77.2571 316.701 -28.3357 -0.04529501 -0.021362 -0.9987453 0 0 255 255 
-37.4902 595.637 76.2477 -0.3541422 0.6123353 0.7068443 0 0 255 255 
-79.0543 569.926 77.6973 -0.3541422 0.6123353 0.7068443 0 0 255 255 
-25.5915 562.528 110.892 -0.3541422 0.6123353 0.7068443 0 0 255 255 
-25.5915 562.528 110.892 -0.2229999 0.07121498 0.9722137 0 0 255 255 
-86.088 499.78 101.612 -0.2229999 0.07121498 0.9722137 0 0 255 255 
-41.8396 293.693 126.857 -0.2229999 0.07121498 0.9722137 0 0 255 255 
8.94276 283.356 -31.5317 0.882715 0.196763 -0.42673 0 0 255 255 
65.6576 230.098 61.2293 0.882715 0.196763 -0.42673 0 0 255 255 
30.6031 188.456 -30.4842 0.882715 0.196763 -0.42673 0 0 255 255 
65.6576 230.098 61.2293 0.8803381 0.203066 -0.428683 0 0 255 255 
71.6892 148.223 34.8315 0.8803381 0.203066 -0.428683 0 0 255 255 
30.6031 188.456 -30.4842 0.8803381 0.203066 -0.428683 0 0 255 255 
11.9177 237.464 89.8112 0.5293329 0.126465 0.8389359 0 0 255 255 
-62.6869 47.5375 165.514 0.5293329 0.126465 0.8389359 0 0 255 255 
-10.0379 -25.3766 143.286 0.5293329 0.126465 0.8389359 0 0 255 255 
-67.5488 72.4709 165.775 0.287022 0.133521 0.9485729 0 0 255 255 
-41.8396 293.693 126.857 0.287022 0.133521 0.9485729 0 0 255 255 
-81.0573 277.614 140.987 0.287022 0.133521 0.9485729 0 0 255 255 
-108.637 27.544 113.535 -0.9577394 -0.2093261 0.1972761 0 0 255 255 
-99.781 -25.8179 99.9092 -0.9577394 -0.2093261 0.1972761 0 0 255 255 
-97.5045 -25.3741 111.432 -0.9577394 -0.2093261 0.1972761 0 0 255 255 
-101.665 513.278 61.5223 -0.8781632 0.2308881 0.4189511 0 0 255 255 
-86.088 499.78 101.612 -0.8781632 0.2308881 0.4189511 0 0 255 255 
-79.0543 569.926 77.6973 -0.8781632 0.2308881 0.4189511 0 0 255 255 
-81.0573 277.614 140.987 -0.8690479 0.037311 0.4933189 0 0 255 255 
-117.732 468.994 61.9045 -0.8690479 0.037311 0.4933189 0 0 255 255 
-136.218 252.769 45.6928 -0.8690479 0.037311 0.4933189 0 0 255 255 
-81.0573 277.614 140.987 -0.8262185 0.01364701 0.5631844 0 0 255 255 
-141.476 131.454 55.8919 -0.8262185 0.01364701 0.5631844 0 0 255 255 
-67.5488 72.4709 165.775 -0.8262185 0.01364701 0.5631844 0 0 255 255 
-141.476 131.454 55.8919 -0.8111094 0.06605703 0.5811523 0 0 255 255 
-108.637 27.544 113.535 -0.8111094 0.06605703 0.5811523 0 0 255 255 
-67.5488 72.4709 165.775 -0.8111094 0.06605703 0.5811523 0 0 255 255 
-108.637 27.544 113.535 -0.712604 -0.146149 0.686175 0 0 255 255 
-62.6869 47.5375 165.514 -0.712604 -0.146149 0.686175 0 0 255 255 
-67.5488 72.4709 165.775 -0.712604 -0.146149 0.686175 0 0 255 255 
-99.781 -25.8179 99.9092 -0.8330037 -0.5215418 0.1846589 0 0 255 255 
-60.2634 -83.4523 115.395 -0.8330037 -0.5215418 0.1846589 0 0 255 255 
-97.5045 -25.3741 111.432 -0.8330037 -0.5215418 0.1846589 0 0 255 255 
-0.834572 -127.545 58.725 -0.5063373 -0.8616295 0.03488902 0 0 255 255 
-69.3886 -86.337 81.4971 -0.5063373 -0.8616295 0.03488902 0 0 255 255 
-18.2398 -118.503 29.4257 -0.5063373 -0.8616295 0.03488902 0 0 255 255 
-18.2398 -118.503 29.4257 -0.7605971 -0.446509 -0.471298 0 0 255 255 
-69.3886 -86.337 81.4971 -0.7605971 -0.446509 -0.471298 0 0 255 255 
-63.9568 16.1773 -24.3912 -0.7605971 -0.446509 -0.471298 0 0 255 255 
-63.9568 16.1773 -24.3912 -0.7606037 -0.5162697 -0.3936338 0 0 255 255 
-99.781 -25.8179 99.9092 -0.7606037 -0.5162697 -0.3936338 0 0 255 255 
-125.101 54.3832 43.6457 -0.7606037 -0.5162697 -0.3936338 0 0 255 255 
-118.376 175.268 -27.3843 -0.8897378 -0.1934469 -0.4134549 0 0 255 255 
-125.101 54.3832 43.6457 -0.8897378 -0.1934469 -0.4134549 0 0 255 255 
-135.43 182.48 5.93996 -0.8897378 -0.1934469 -0.4134549 0 0 255 255 
-125.101 54.3832 43.6457 -0.9482021 -0.15764 -0.275794 0 0 255 255 
-141.476 131.454 55.8919 -0.9482021 -0.15764 -0.275794 0 0 255 255 
-135.43 182.48 5.93996 -0.9482021 -0.15764 -0.275794 0 0 255 255 
-10.0379 -25.3766 143.286 -0.3019248 -0.4707347 0.8290055 0 0 255 255 
-62.6869 47.5375 165.514 -0.3019248 -0.4707347 0.8290055 0 0 255 255 
-97.5045 -25.3741 111.432 -0.3019248 -0.4707347 0.8290055 0 0 255 255 
5.25268 -103.108 17.3233 0.6735761 -0.491892 -0.551668 0 0 255 255 
15.4586 -58.5652 -9.93196 0.6735761 -0.491892 -0.551668 0 0 255 255 
42.0555 -67.9985 30.9535 0.6735761 -0.491892 -0.551668 0 0 255 255 
-69.3886 -86.337 81.4971 -0.4776359 -0.8551728 0.201354 0 0 255 255 
-24.681 -101.783 121.949 -0.4776359 -0.8551728 0.201354 0 0 255 255 
-60.2634 -83.4523 115.395 -0.4776359 -0.8551728 0.201354 0 0 255 255 
21.4082 -82.5283 63.3291 0.6684352 -0.7376472 0.09524203 0 0 255 255 
5.25268 -103.108 17.3233 0.6684352 -0.7376472 0.09524203 0 0 255 255 
42.0555 -67.9985 30.9535 0.6684352 -0.7376472 0.09524203 0 0 255 255 
-63.9568 16.1773 -24.3912 -0.19605 -0.3829441 -0.9027283 0 0 255 255 
-1.3999 56.8315 -55.2228 -0.19605 -0.3829441 -0.9027283 0 0 255 255 
15.4586 -58.5652 -9.93196 -0.19605 -0.3829441 -0.9027283 0 0 255 255 
-18.2398 -118.503 29.4257 0.156294 -0.9138148 -0.3748529 0 0 255 255 
1.8729 -112.531 23.2531 0.156294 -0.9138148 -0.3748529 0 0 255 255 
-0.834572 -127.545 58.725 0.156294 -0.9138148 -0.3748529 0 0 255 255 
-10.0379 -25.3766 143.286 -0.36231 -0.129922 0.9229581 0 0 255 255 
-60.2634 -83.4523 115.395 -0.36231 -0.129922 0.9229581 0 0 255 255 
-12.8017 -74.2243 135.325 -0.36231 -0.129922 0.9229581 0 0 255 255 
-60.2634 -83.4523 115.395 -0.319537 -0.298722 0.899256 0 0 255 255 
-24.681 -101.783 121.949 -0.319537 -0.298722 0.899256 0 0 255 255 
-12.8017 -74.2243 135.325 -0.319537 -0.298722 0.899256 0 0 255 255 
21.4082 -82.5283 63.3291 0.8874177 -0.4472649 -0.111552 0 0 255 255 
7.02777 -113.707 73.9404 0.8874177 -0.4472649 -0.111552 0 0 255 255 
5.25268 -103.108 17.3233 0.8874177 -0.4472649 -0.111552 0 0 255 255 
1.8729 -112.531 23.2531 0.908876 -0.404448 -0.101815 0 0 255 255 
7.02777 -113.707 73.9404 0.908876 -0.404448 -0.101815 0 0 255 255 
-0.834572 -127.545 58.725 0.908876 -0.404448 -0.101815 0 0 255 255 
-10.5395 -94.8744 119.17 0.8633752 -0.2488201 0.4389441 0 0 255 255 
21.4082 -82.5283 63.3291 0.8633752 -0.2488201 0.4389441 0 0 255 255 
-12.8017 -74.2243 135.325 0.8633752 -0.2488201 0.4389441 0 0 255 255 
11.9177 237.464 89.8112 0.4796878 0.1362789 0.8667916 0 0 255 255 
-10.0379 -25.3766 143.286 0.4796878 0.1362789 0.8667916 0 0 255 255 
65.6576 230.098 61.2293 0.4796878 0.1362789 0.8667916 0 0 255 255 
71.6892 148.223 34.8315 0.8800853 -0.1288151 0.4570082 0 0 255 255 
-10.0379 -25.3766 143.286 0.8800853 -0.1288151 0.4570082 0 0 255 255 
42.0555 -67.9985 30.9535 0.8800853 -0.1288151 0.4570082 0 0 255 255 
21.4082 -82.5283 63.3291 0.8909922 -0.121699 0.4374041 0 0 255 255 
-10.0379 -25.3766 143.286 0.8909922 -0.121699 0.4374041 0 0 255 255 
-12.8017 -74.2243 135.325 0.8909922 -0.121699 0.4374041 0 0 255 255 
-12.8017 -74.2243 135.325 0.406833 -0.534816 0.74058 0 0 255 255 
-24.681 -101.783 121.949 0.406833 -0.534816 0.74058 0 0 255 255 
-10.5395 -94.8744 119.17 0.406833 -0.534816 0.74058 0 0 255 255 
7.02777 -113.707 73.9404 0.4308491 -0.7672191 0.4751251 0 0 255 255 
-24.681 -101.783 121.949 0.4308491 -0.7672191 0.4751251 0 0 255 255 
-0.834572 -127.545 58.725 0.4308491 -0.7672191 0.4751251 0 0 255 255 
30.6031 188.456 -30.4842 0.8260961 -0.06511201 -0.5597551 0 0 255 255 
71.6892 148.223 34.8315 0.8260961 -0.06511201 -0.5597551 0 0 255 255 
28.3044 145.535 -28.8841 0.8260961 -0.06511201 -0.5597551 0 0 255 255 
-1.3999 56.8315 -55.2228 0.8235479 -0.09890898 -0.5585569 0 0 255 255 
42.0555 -67.9985 30.9535 0.8235479 -0.09890898 -0.5585569 0 0 255 255 
15.4586 -58.5652 -9.93196 0.8235479 -0.09890898 -0.5585569 0 0 255 255 
-18.2398 -118.503 29.4257 -0.11539 -0.4990749 -0.8588419 0 0 255 255 
5.25268 -103.108 17.3233 -0.11539 -0.4990749 -0.8588419 0 0 255 255 
1.8729 -112.531 23.2531 -0.11539 -0.4990749 -0.8588419 0 0 255 255 
15.4586 -58.5652 -9.93196 -0.2743779 -0.4553799 -0.8469628 0 0 255 255 
5.25268 -103.108 17.3233 -0.2743779 -0.4553799 -0.8469628 0 0 255 255 
-63.9568 16.1773 -24.3912 -0.2743779 -0.4553799 -0.8469628 0 0 255 255 
-1.3999 56.8315 -55.2228 0.8236625 -0.1106761 -0.5561754 0 0 255 255 
28.3044 145.535 -28.8841 0.8236625 -0.1106761 -0.5561754 0 0 255 255 
71.6892 148.223 34.8315 0.8236625 -0.1106761 -0.5561754 0 0 255 255 
-152.957 -105.981 89.335 0.9935176 -0.03152899 -0.109219 0 0 255 255 
-146.789 19.6236 109.183 0.9935176 -0.03152899 -0.109219 0 0 255 255 
-146.137 -81.819 144.402 0.9935176 -0.03152899 -0.109219 0 0 255 255 
-152.957 -105.981 89.335 0.145248 -0.4645258 -0.8735667 0 0 255 255 
-253.387 7.53609 12.2731 0.145248 -0.4645258 -0.8735667 0 0 255 255 
-169.281 22.6114 18.241 0.145248 -0.4645258 -0.8735667 0 0 255 255 
-233.39 -127.537 86.4706 -0.743947 -0.402963 -0.53307 0 0 255 255 
-291.386 -8.68563 77.5671 -0.743947 -0.402963 -0.53307 0 0 255 255 
-253.387 7.53609 12.2731 -0.743947 -0.402963 -0.53307 0 0 255 255 
-256.904 -114.315 126.503 -0.7929979 0.023162 0.608784 0 0 255 255 
-225.026 13.7261 163.155 -0.7929979 0.023162 0.608784 0 0 255 255 
-291.386 -8.68563 77.5671 -0.7929979 0.023162 0.608784 0 0 255 255 
-146.137 -81.819 144.402 0.507414 0.25757 0.822307 0 0 255 255 
-225.026 13.7261 163.155 0.507414 0.25757 0.822307 0 0 255 255 
-213.765 -75.4485 184.138 0.507414 0.25757 0.822307 0 0 255 255 
-152.957 -105.981 89.335 0.4795768 -0.8238626 0.3020869 0 0 255 255 
-146.137 -81.819 144.402 0.4795768 -0.8238626 0.3020869 0 0 255 255 
-198.256 -116.498 132.567 0.4795768 -0.8238626 0.3020869 0 0 255 255 
-233.39 -127.537 86.4706 0.2575511 -0.9656323 0.03495401 0 0 255 255 
-152.957 -105.981 89.335 0.2575511 -0.9656323 0.03495401 0 0 255 255 
-198.256 -116.498 132.567 0.2575511 -0.9656323 0.03495401 0 0 255 255 
-256.904 -114.315 126.503 -0.06448399 -0.9582319 0.278628 0 0 255 255 
-233.39 -127.537 86.4706 -0.06448399 -0.9582319 0.278628 0 0 255 255 
-198.256 -116.498 132.567 -0.06448399 -0.9582319 0.278628 0 0 255 255 
-213.765 -75.4485 184.138 -0.09185805 -0.7923685 0.6030874 0 0 255 255 
-256.904 -114.315 126.503 -0.09185805 -0.7923685 0.6030874 0 0 255 255 
-198.256 -116.498 132.567 -0.09185805 -0.7923685 0.6030874 0 0 255 255 
-146.137 -81.819 144.402 0.3149089 -0.6941828 0.6472578 0 0 255 255 
-213.765 -75.4485 184.138 0.3149089 -0.6941828 0.6472578 0 0 255 255 
-198.256 -116.498 132.567 0.3149089 -0.6941828 0.6472578 0 0 255 255 
-241.87 212.251 -1.92042 0.5935646 0.3456628 -0.7267726 0 0 255 255 
-196.491 114.252 -11.4682 0.5935646 0.3456628 -0.7267726 0 0 255 255 
-252.484 214.042 -9.73704 0.5935646 0.3456628 -0.7267726 0 0 255 255 
-196.491 114.252 -11.4682 0.102211 0.02214001 -0.9945163 0 0 255 255 
-255.365 114.538 -17.5126 0.102211 0.02214001 -0.9945163 0 0 255 255 
-254.59 201.418 -15.4987 0.102211 0.02214001 -0.9945163 0 0 255 255 
-255.365 114.538 -17.5126 -0.806411 0.020898 -0.590986 0 0 255 255 
-291.257 129.855 32.0037 -0.806411 0.020898 -0.590986 0 0 255 255 
-254.59 201.418 -15.4987 -0.806411 0.020898 -0.590986 0 0 255 255 
-291.257 129.855 32.0037 -0.712365 0.546434 0.440393 0 0 255 255 
-242.43 148.795 87.4841 -0.712365 0.546434 0.440393 0 0 255 255 
-252.484 214.042 -9.73704 -0.712365 0.546434 0.440393 0 0 255 255 
-242.43 148.795 87.4841 -0.2763709 0.7845288 0.5550979 0 0 255 255 
-241.87 212.251 -1.92042 -0.2763709 0.7845288 0.5550979 0 0 255 255 
-252.484 214.042 -9.73704 -0.2763709 0.7845288 0.5550979 0 0 255 255 
-169.281 22.6114 18.241 0.9555185 0.1842951 -0.2302601 0 0 255 255 
-183.216 145.905 59.0943 0.9555185 0.1842951 -0.2302601 0 0 255 255 
-146.789 19.6236 109.183 0.9555185 0.1842951 -0.2302601 0 0 255 255 
-253.387 7.53609 12.2731 0.116955 -0.2746801 -0.9543964 0 0 255 255 
-196.491 114.252 -11.4682 0.116955 -0.2746801 -0.9543964 0 0 255 255 
-169.281 22.6114 18.241 0.116955 -0.2746801 -0.9543964 0 0 255 255 
-253.387 7.53609 12.2731 -0.8221292 -0.166725 -0.5443402 0 0 255 255 
-291.257 129.855 32.0037 -0.8221292 -0.166725 -0.5443402 0 0 255 255 
-255.365 114.538 -17.5126 -0.8221292 -0.166725 -0.5443402 0 0 255 255 
-291.386 -8.68563 77.5671 -0.7683788 0.2005939 0.6077469 0 0 255 255 
-242.43 148.795 87.4841 -0.7683788 0.2005939 0.6077469 0 0 255 255 
-291.257 129.855 32.0037 -0.7683788 0.2005939 0.6077469 0 0 255 255 
-146.789 19.6236 109.183 0.4748209 0.475926 0.740297 0 0 255 255 
-242.43 148.795 87.4841 0.4748209 0.475926 0.740297 0 0 255 255 
-225.026 13.7261 163.155 0.4748209 0.475926 0.740297 0 0 255 255 
-254.59 201.418 -15.4987 -0.9167756 0.2819789 -0.2828609 0 0 255 255 
-291.257 129.855 32.0037 -0.9167756 0.2819789 -0.2828609 0 0 255 255 
-252.484 214.042 -9.73704 -0.9167756 0.2819789 -0.2828609 0 0 255 255 
-196.491 114.252 -11.4682 0.4940689 0.2914369 -0.8191218 0 0 255 255 
-254.59 201.418 -15.4987 0.4940689 0.2914369 -0.8191218 0 0 255 255 
-252.484 214.042 -9.73704 0.4940689 0.2914369 -0.8191218 0 0 255 255 
-242.43 148.795 87.4841 0.302945 0.7762561 0.552857 0 0 255 255 
-183.216 145.905 59.0943 0.302945 0.7762561 0.552857 0 0 255 255 
-241.87 212.251 -1.92042 0.302945 0.7762561 0.552857 0 0 255 255 
-183.216 145.905 59.0943 0.8377823 0.4217291 -0.3467931 0 0 255 255 
-196.491 114.252 -11.4682 0.8377823 0.4217291 -0.3467931 0 0 255 255 
-241.87 212.251 -1.92042 0.8377823 0.4217291 -0.3467931 0 0 255 255 
75.545 -81.8253 -58.3959 0.236122 0.137913 0.9618869 0 0 255 255 
123.444 79.4406 -93.276 0.236122 0.137913 0.9618869 0 0 255 255 
52.688 50.2887 -71.7272 0.236122 0.137913 0.9618869 0 0 255 255 
75.545 -81.8253 -58.3959 0.9541369 -0.241202 0.177326 0 0 255 255 
80.3784 -105.648 -116.807 0.9541369 -0.241202 0.177326 0 0 255 255 
130.367 63.5718 -155.606 0.9541369 -0.241202 0.177326 0 0 255 255 
80.3784 -105.648 -116.807 0.4380917 -0.3874287 -0.8111564 0 0 255 255 
48.941 -102.956 -135.072 0.4380917 -0.3874287 -0.8111564 0 0 255 255 
81.2984 26.5265 -179.44 0.4380917 -0.3874287 -0.8111564 0 0 255 255 
48.941 -102.956 -135.072 -0.5703552 -0.117917 -0.8128902 0 0 255 255 
1.22746 -76.37 -105.451 -0.5703552 -0.117917 -0.8128902 0 0 255 255 
12.4731 27.3185 -128.382 -0.5703552 -0.117917 -0.8128902 0 0 255 255 
31.2937 -71.0811 -54.4565 -0.8353724 0.2189981 0.5041753 0 0 255 255 
52.688 50.2887 -71.7272 -0.8353724 0.2189981 0.5041753 0 0 255 255 
12.4731 27.3185 -128.382 -0.8353724 0.2189981 0.5041753 0 0 255 255 
123.444 79.4406 -93.276 0.209479 0.274769 0.9384139 0 0 255 255 
141.583 188.144 -129.154 0.209479 0.274769 0.9384139 0 0 255 255 
84.763 202.727 -120.74 0.209479 0.274769 0.9384139 0 0 255 255 
130.367 63.5718 -155.606 0.9862059 -0.114227 0.119792 0 0 255 255 
147.242 189.459 -174.495 0.9862059 -0.114227 0.119792 0 0 255 255 
141.583 188.144 -129.154 0.9862059 -0.114227 0.119792 0 0 255 255 
130.367 63.5718 -155.606 0.5470791 -0.201994 -0.8123441 0 0 255 255 
81.2984 26.5265 -179.44 0.5470791 -0.201994 -0.8123441 0 0 255 255 
108.532 191.566 -202.138 0.5470791 -0.201994 -0.8123441 0 0 255 255 
81.2984 26.5265 -179.44 -0.59576 0.004824 -0.803148 0 0 255 255 
12.4731 27.3185 -128.382 -0.59576 0.004824 -0.803148 0 0 255 255 
63.5615 196.989 -165.26 -0.59576 0.004824 -0.803148 0 0 255 255 
52.688 50.2887 -71.7272 -0.8744332 0.3052361 0.3770911 0 0 255 255 
84.763 202.727 -120.74 -0.8744332 0.3052361 0.3770911 0 0 255 255 
63.5615 196.989 -165.26 -0.8744332 0.3052361 0.3770911 0 0 255 255 
113.63 24.035 136.397 -0.6483891 0.109583 0.7533811 0 0 255 255 
158.011 147.952 156.569 -0.6483891 0.109583 0.7533811 0 0 255 255 
61.123 116.223 77.7987 -0.6483891 0.109583 0.7533811 0 0 255 255 
61.123 116.223 77.7987 -0.6545352 0.103263 0.7489462 0 0 255 255 
57.5559 101.225 76.7492 -0.6545352 0.103263 0.7489462 0 0 255 255 
113.63 24.035 136.397 -0.6545352 0.103263 0.7489462 0 0 255 255 
158.011 147.952 156.569 -0.439401 0.24787 0.863416 0 0 255 255 
235.163 450.808 108.888 -0.439401 0.24787 0.863416 0 0 255 255 
166.66 420.275 82.7917 -0.439401 0.24787 0.863416 0 0 255 255 
113.63 24.035 136.397 -0.641301 -0.370639 0.671833 0 0 255 255 
61.1914 32.9825 91.2782 -0.641301 -0.370639 0.671833 0 0 255 255 
62.3784 -24.5934 60.6476 -0.641301 -0.370639 0.671833 0 0 255 255 
153.949 -79.8517 91.6311 -0.4631189 -0.2998 0.8340509 0 0 255 255 
62.3784 -24.5934 60.6476 -0.4631189 -0.2998 0.8340509 0 0 255 255 
114.337 -114 57.361 -0.4631189 -0.2998 0.8340509 0 0 255 255 
159.708 -93.851 -3.10197 -0.6485718 -0.4281059 -0.6293488 0 0 255 255 
142.456 -123.218 34.6534 -0.6485718 -0.4281059 -0.6293488 0 0 255 255 
114.337 -114 57.361 -0.6485718 -0.4281059 -0.6293488 0 0 255 255 
203.939 -84.3789 30.5105 0.6619183 -0.4786762 0.5768303 0 0 255 255 
153.949 -79.8517 91.6311 0.6619183 -0.4786762 0.5768303 0 0 255 255 
144.554 -112.663 75.1833 0.6619183 -0.4786762 0.5768303 0 0 255 255 
273.386 397.167 61.2142 0.5962193 0.4498602 -0.6649423 0 0 255 255 
227.278 397.489 20.0891 0.5962193 0.4498602 -0.6649423 0 0 255 255 
227.892 452.684 57.9806 0.5962193 0.4498602 -0.6649423 0 0 255 255 
219.929 123.719 133.814 0.889969 -0.053753 0.452842 0 0 255 255 
246.578 121.954 81.2316 0.889969 -0.053753 0.452842 0 0 255 255 
273.386 397.167 61.2142 0.889969 -0.053753 0.452842 0 0 255 255 
200.539 8.42081 126.485 0.8511416 -0.1439379 0.5048168 0 0 255 255 
265.741 54.1383 29.5862 0.8511416 -0.1439379 0.5048168 0 0 255 255 
246.578 121.954 81.2316 0.8511416 -0.1439379 0.5048168 0 0 255 255 
159.708 -93.851 -3.10197 0.4977733 -0.7442715 -0.4452883 0 0 255 255 
203.939 -84.3789 30.5105 0.4977733 -0.7442715 -0.4452883 0 0 255 255 
154.717 -123.721 41.2456 0.4977733 -0.7442715 -0.4452883 0 0 255 255 
113.63 24.035 136.397 0.09881698 -0.07967399 0.9919109 0 0 255 255 
200.539 8.42081 126.485 0.09881698 -0.07967399 0.9919109 0 0 255 255 
219.929 123.719 133.814 0.09881698 -0.07967399 0.9919109 0 0 255 255 
227.892 452.684 57.9806 -0.5543349 0.6806239 -0.4790239 0 0 255 255 
191.424 406.231 34.1794 -0.5543349 0.6806239 -0.4790239 0 0 255 255 
166.66 420.275 82.7917 -0.5543349 0.6806239 -0.4790239 0 0 255 255 
62.3784 -24.5934 60.6476 -0.6171139 -0.192513 -0.7629609 0 0 255 255 
59.3849 37.4849 47.405 -0.6171139 -0.192513 -0.7629609 0 0 255 255 
171.9 21.6893 -39.6161 -0.6171139 -0.192513 -0.7629609 0 0 255 255 
110.286 102.942 -7.34394 -0.8296112 0.2136731 -0.5158382 0 0 255 255 
59.3849 37.4849 47.405 -0.8296112 0.2136731 -0.5158382 0 0 255 255 
57.5559 101.225 76.7492 -0.8296112 0.2136731 -0.5158382 0 0 255 255 
191.424 406.231 34.1794 -0.8301533 0.2540501 -0.4962902 0 0 255 255 
169.234 216.308 -25.9252 -0.8301533 0.2540501 -0.4962902 0 0 255 255 
166.66 420.275 82.7917 -0.8301533 0.2540501 -0.4962902 0 0 255 255 
110.286 102.942 -7.34394 -0.7944739 0.329499 -0.5101389 0 0 255 255 
61.123 116.223 77.7987 -0.7944739 0.329499 -0.5101389 0 0 255 255 
169.234 216.308 -25.9252 -0.7944739 0.329499 -0.5101389 0 0 255 255 
227.278 397.489 20.0891 0.6653494 -0.02365201 -0.7461574 0 0 255 255 
273.386 397.167 61.2142 0.6653494 -0.02365201 -0.7461574 0 0 255 255 
169.234 216.308 -25.9252 0.6653494 -0.02365201 -0.7461574 0 0 255 255 
251.068 116.861 16.5033 0.5958588 0.1540549 -0.7881747 0 0 255 255 
187.083 100.997 -34.97 0.5958588 0.1540549 -0.7881747 0 0 255 255 
169.234 216.308 -25.9252 0.5958588 0.1540549 -0.7881747 0 0 255 255 
265.741 54.1383 29.5862 0.6076171 -0.06998002 -0.7911411 0 0 255 255 
171.9 21.6893 -39.6161 0.6076171 -0.06998002 -0.7911411 0 0 255 255 
187.083 100.997 -34.97 0.6076171 -0.06998002 -0.7911411 0 0 255 255 
171.9 21.6893 -39.6161 0.6308218 -0.2862649 -0.7211908 0 0 255 255 
265.741 54.1383 29.5862 0.6308218 -0.2862649 -0.7211908 0 0 255 255 
203.939 -84.3789 30.5105 0.6308218 -0.2862649 -0.7211908 0 0 255 255 
144.554 -112.663 75.1833 -0.1083731 -0.9606425 0.2557761 0 0 255 255 
114.337 -114 57.361 -0.1083731 -0.9606425 0.2557761 0 0 255 255 
142.456 -123.218 34.6534 -0.1083731 -0.9606425 0.2557761 0 0 255 255 
11.9177 237.464 89.8112 0.481195 0.190154 0.8557411 0 0 255 255 
65.6576 230.098 61.2293 0.481195 0.190154 0.8557411 0 0 255 255 
7.50615 545.543 23.8338 0.481195 0.190154 0.8557411 0 0 255 255 
-59.6948 541.954 4.81259 0.32694 0.514974 -0.792409 0 0 255 255 
-49.0965 621.642 60.9733 0.32694 0.514974 -0.792409 0 0 255 255 
-36.8593 616.53 62.6996 0.32694 0.514974 -0.792409 0 0 255 255 
7.50615 545.543 23.8338 0.8434212 0.2741511 0.4620411 0 0 255 255 
-36.8593 616.53 62.6996 0.8434212 0.2741511 0.4620411 0 0 255 255 
-37.4902 595.637 76.2477 0.8434212 0.2741511 0.4620411 0 0 255 255 
-49.0965 621.642 60.9733 -0.8509359 0.373478 -0.369354 0 0 255 255 
-59.6948 541.954 4.81259 -0.8509359 0.373478 -0.369354 0 0 255 255 
-79.0543 569.926 77.6973 -0.8509359 0.373478 -0.369354 0 0 255 255 
-117.732 468.994 61.9045 -0.7827002 0.14992 -0.6040732 0 0 255 255 
-59.6948 541.954 4.81259 -0.7827002 0.14992 -0.6040732 0 0 255 255 
-77.2571 316.701 -28.3357 -0.7827002 0.14992 -0.6040732 0 0 255 255 
-136.218 252.769 45.6928 -0.8502328 0.2440519 -0.4664149 0 0 255 255 
-77.2571 316.701 -28.3357 -0.8502328 0.2440519 -0.4664149 0 0 255 255 
-118.376 175.268 -27.3843 -0.8502328 0.2440519 -0.4664149 0 0 255 255 
-36.8593 616.53 62.6996 0.277124 0.82793 0.48758 0 0 255 255 
-49.0965 621.642 60.9733 0.277124 0.82793 0.48758 0 0 255 255 
-52.2664 619.802 65.9006 0.277124 0.82793 0.48758 0 0 255 255 
-118.376 175.268 -27.3843 -0.02074199 -0.0006949998 -0.9997846 0 0 255 255 
-77.2571 316.701 -28.3357 -0.02074199 -0.0006949998 -0.9997846 0 0 255 255 
30.6031 188.456 -30.4842 -0.02074199 -0.0006949998 -0.9997846 0 0 255 255 
-37.4902 595.637 76.2477 -0.1566991 0.3062472 0.9389665 0 0 255 255 
-52.2664 619.802 65.9006 -0.1566991 0.3062472 0.9389665 0 0 255 255 
-79.0543 569.926 77.6973 -0.1566991 0.3062472 0.9389665 0 0 255 255 
-25.5915 562.528 110.892 -0.465397 0.327063 0.822457 0 0 255 255 
-79.0543 569.926 77.6973 -0.465397 0.327063 0.822457 0 0 255 255 
-86.088 499.78 101.612 -0.465397 0.327063 0.822457 0 0 255 255 
8.94276 283.356 -31.5317 0.8741361 0.104928 -0.4742111 0 0 255 255 
7.50615 545.543 23.8338 0.8741361 0.104928 -0.4742111 0 0 255 255 
65.6576 230.098 61.2293 0.8741361 0.104928 -0.4742111 0 0 255 255 
11.9177 237.464 89.8112 0.615398 0.071159 0.784998 0 0 255 255 
-41.8396 293.693 126.857 0.615398 0.071159 0.784998 0 0 255 255 
-62.6869 47.5375 165.514 0.615398 0.071159 0.784998 0 0 255 255 
-67.5488 72.4709 165.775 0.5117287 0.09082795 0.8543324 0 0 255 255 
-62.6869 47.5375 165.514 0.5117287 0.09082795 0.8543324 0 0 255 255 
-41.8396 293.693 126.857 0.5117287 0.09082795 0.8543324 0 0 255 255 
-108.637 27.544 113.535 -0.9681439 -0.199363 0.151499 0 0 255 255 
-125.101 54.3832 43.6457 -0.9681439 -0.199363 0.151499 0 0 255 255 
-99.781 -25.8179 99.9092 -0.9681439 -0.199363 0.151499 0 0 255 255 
-81.0573 277.614 140.987 -0.8101314 0.08447404 0.5801303 0 0 255 255 
-86.088 499.78 101.612 -0.8101314 0.08447404 0.5801303 0 0 255 255 
-117.732 468.994 61.9045 -0.8101314 0.08447404 0.5801303 0 0 255 255 
-81.0573 277.614 140.987 -0.8715288 0.07846398 0.4840259 0 0 255 255 
-136.218 252.769 45.6928 -0.8715288 0.07846398 0.4840259 0 0 255 255 
-141.476 131.454 55.8919 -0.8715288 0.07846398 0.4840259 0 0 255 255 
-141.476 131.454 55.8919 -0.9637997 -0.2269989 0.139863 0 0 255 255 
-125.101 54.3832 43.6457 -0.9637997 -0.2269989 0.139863 0 0 255 255 
-108.637 27.544 113.535 -0.9637997 -0.2269989 0.139863 0 0 255 255 
-108.637 27.544 113.535 -0.703177 -0.17532 0.689061 0 0 255 255 
-97.5045 -25.3741 111.432 -0.703177 -0.17532 0.689061 0 0 255 255 
-62.6869 47.5375 165.514 -0.703177 -0.17532 0.689061 0 0 255 255 
-99.781 -25.8179 99.9092 -0.8270142 -0.4958951 0.2648311 0 0 255 255 
-69.3886 -86.337 81.4971 -0.8270142 -0.4958951 0.2648311 0 0 255 255 
-60.2634 -83.4523 115.395 -0.8270142 -0.4958951 0.2648311 0 0 255 255 
-63.9568 16.1773 -24.3912 -0.8724818 -0.3279469 -0.3622519 0 0 255 255 
-69.3886 -86.337 81.4971 -0.8724818 -0.3279469 -0.3622519 0 0 255 255 
-99.781 -25.8179 99.9092 -0.8724818 -0.3279469 -0.3622519 0 0 255 255 
-118.376 175.268 -27.3843 -0.7868703 -0.2795121 -0.5501892 0 0 255 255 
-63.9568 16.1773 -24.3912 -0.7868703 -0.2795121 -0.5501892 0 0 255 255 
-125.101 54.3832 43.6457 -0.7868703 -0.2795121 -0.5501892 0 0 255 255 
-69.3886 -86.337 81.4971 -0.4623588 -0.8683466 0.1794399 0 0 255 255 
-0.834572 -127.545 58.725 -0.4623588 -0.8683466 0.1794399 0 0 255 255 
-24.681 -101.783 121.949 -0.4623588 -0.8683466 0.1794399 0 0 255 255 
-10.0379 -25.3766 143.286 -0.338148 -0.153477 0.9284939 0 0 255 255 
-97.5045 -25.3741 111.432 -0.338148 -0.153477 0.9284939 0 0 255 255 
-60.2634 -83.4523 115.395 -0.338148 -0.153477 0.9284939 0 0 255 255 
1.8729 -112.531 23.2531 0.9142243 -0.3921412 -0.102074 0 0 255 255 
5.25268 -103.108 17.3233 0.9142243 -0.3921412 -0.102074 0 0 255 255 
7.02777 -113.707 73.9404 0.9142243 -0.3921412 -0.102074 0 0 255 255 
-10.5395 -94.8744 119.17 0.863375 -0.248821 0.438944 0 0 255 255 
7.02777 -113.707 73.9404 0.863375 -0.248821 0.438944 0 0 255 255 
21.4082 -82.5283 63.3291 0.863375 -0.248821 0.438944 0 0 255 255 
71.6892 148.223 34.8315 0.8629378 -0.09635798 0.4960379 0 0 255 255 
65.6576 230.098 61.2293 0.8629378 -0.09635798 0.4960379 0 0 255 255 
-10.0379 -25.3766 143.286 0.8629378 -0.09635798 0.4960379 0 0 255 255 
21.4082 -82.5283 63.3291 0.8640352 -0.181526 0.4695651 0 0 255 255 
42.0555 -67.9985 30.9535 0.8640352 -0.181526 0.4695651 0 0 255 255 
-10.0379 -25.3766 143.286 0.8640352 -0.181526 0.4695651 0 0 255 255 
7.02777 -113.707 73.9404 0.458739 -0.742898 0.487505 0 0 255 255 
-10.5395 -94.8744 119.17 0.458739 -0.742898 0.487505 0 0 255 255 
-24.681 -101.783 121.949 0.458739 -0.742898 0.487505 0 0 255 255 
-1.3999 56.8315 -55.2228 0.8206701 -0.102393 -0.5621531 0 0 255 255 
71.6892 148.223 34.8315 0.8206701 -0.102393 -0.5621531 0 0 255 255 
42.0555 -67.9985 30.9535 0.8206701 -0.102393 -0.5621531 0 0 255 255 
-18.2398 -118.503 29.4257 -0.184323 -0.4180199 -0.8895417 0 0 255 255 
-63.9568 16.1773 -24.3912 -0.184323 -0.4180199 -0.8895417 0 0 255 255 
5.25268 -103.108 17.3233 -0.184323 -0.4180199 -0.8895417 0 0 255 255 
-152.957 -105.981 89.335 0.9706329 -0.009680999 -0.240371 0 0 255 255 
-169.281 22.6114 18.241 0.9706329 -0.009680999 -0.240371 0 0 255 255 
-146.789 19.6236 109.183 0.9706329 -0.009680999 -0.240371 0 0 255 255 
-152.957 -105.981 89.335 0.153954 -0.4581099 -0.8754619 0 0 255 255 
-233.39 -127.537 86.4706 0.153954 -0.4581099 -0.8754619 0 0 255 255 
-253.387 7.53609 12.2731 0.153954 -0.4581099 -0.8754619 0 0 255 255 
-233.39 -127.537 86.4706 -0.8326151 -0.432239 -0.346297 0 0 255 255 
-256.904 -114.315 126.503 -0.8326151 -0.432239 -0.346297 0 0 255 255 
-291.386 -8.68563 77.5671 -0.8326151 -0.432239 -0.346297 0 0 255 255 
-256.904 -114.315 126.503 -0.8112397 0.03489199 0.5836717 0 0 255 255 
-213.765 -75.4485 184.138 -0.8112397 0.03489199 0.5836717 0 0 255 255 
-225.026 13.7261 163.155 -0.8112397 0.03489199 0.5836717 0 0 255 255 
-146.137 -81.819 144.402 0.530507 0.281068 0.7997269 0 0 255 255 
-146.789 19.6236 109.183 0.530507 0.281068 0.7997269 0 0 255 255 
-225.026 13.7261 163.155 0.530507 0.281068 0.7997269 0 0 255 255 
-169.281 22.6114 18.241 0.9444358 0.194536 -0.2649469 0 0 255 255 
-196.491 114.252 -11.4682 0.9444358 0.194536 -0.2649469 0 0 255 255 
-183.216 145.905 59.0943 0.9444358 0.194536 -0.2649469 0 0 255 255 
-253.387 7.53609 12.2731 0.09719802 -0.2652311 -0.9592732 0 0 255 255 
-255.365 114.538 -17.5126 0.09719802 -0.2652311 -0.9592732 0 0 255 255 
-196.491 114.252 -11.4682 0.09719802 -0.2652311 -0.9592732 0 0 255 255 
-253.387 7.53609 12.2731 -0.8320791 -0.172582 -0.5271241 0 0 255 255 
-291.386 -8.68563 77.5671 -0.8320791 -0.172582 -0.5271241 0 0 255 255 
-291.257 129.855 32.0037 -0.8320791 -0.172582 -0.5271241 0 0 255 255 
-291.386 -8.68563 77.5671 -0.7983841 0.2127201 0.5633231 0 0 255 255 
-225.026 13.7261 163.155 -0.7983841 0.2127201 0.5633231 0 0 255 255 
-242.43 148.795 87.4841 -0.7983841 0.2127201 0.5633231 0 0 255 255 
-146.789 19.6236 109.183 0.4063191 0.4357601 0.8031301 0 0 255 255 
-183.216 145.905 59.0943 0.4063191 0.4357601 0.8031301 0 0 255 255 
-242.43 148.795 87.4841 0.4063191 0.4357601 0.8031301 0 0 255 255 
3 0 1 2 
3 3 4 5 
3 6 7 8 
3 9 10 11 
3 12 13 14 
3 15 16 17 
3 18 19 20 
3 21 22 23 
3 24 25 26 
3 27 28 29 
3 30 31 32 
3 33 34 35 
3 36 37 38 
3 39 40 41 
3 42 43 44 
3 45 46 47 
3 48 49 50 
3 51 52 53 
3 54 55 56 
3 57 58 59 
3 60 61 62 
3 63 64 65 
3 66 67 68 
3 69 70 71 
3 72 73 74 
3 75 76 77 
3 78 79 80 
3 81 82 83 
3 84 85 86 
3 87 88 89 
3 90 91 92 
3 93 94 95 
3 96 97 98 
3 99 100 101 
3 102 103 104 
3 105 106 107 
3 108 109 110 
3 111 112 113 
3 114 115 116 
3 117 118 119 
3 120 121 122 
3 123 124 125 
3 126 127 128 
3 129 130 131 
3 132 133 134 
3 135 136 137 
3 138 139 140 
3 141 142 143 
3 144 145 146 
3 147 148 149 
3 150 151 152 
3 153 154 155 
3 156 157 158 
3 159 160 161 
3 162 163 164 
3 165 166 167 
3 168 169 170 
3 171 172 173 
3 174 175 176 
3 177 178 179 
3 180 181 182 
3 183 184 185 
3 186 187 188 
3 189 190 191 
3 192 193 194 
3 195 196 197 
3 198 199 200 
3 201 202 203 
3 204 205 206 
3 207 208 209 
3 210 211 212 
3 213 214 215 
3 216 217 218 
3 219 220 221 
3 222 223 224 
3 225 226 227 
3 228 229 230 
3 231 232 233 
3 234 235 236 
3 237 238 239 
3 240 241 242 
3 243 244 245 
3 246 247 248 
3 249 250 251 
3 252 253 254 
3 255 256 257 
3 258 259 260 
3 261 262 263 
3 264 265 266 
3 267 268 269 
3 270 271 272 
3 273 274 275 
3 276 277 278 
3 279 280 281 
3 282 283 284 
3 285 286 287 
3 288 289 290 
3 291 292 293 
3 294 295 296 
3 297 298 299 
3 300 301 302 
3 303 304 305 
3 306 307 308 
3 309 310 311 
3 312 313 314 
3 315 316 317 
3 318 319 320 
3 321 322 323 
3 324 325 326 
3 327 328 329 
3 330 331 332 
3 333 334 335 
3 336 337 338 
3 339 340 341 
3 342 343 344 
3 345 346 347 
3 348 349 350 
3 351 352 353 
3 354 355 356 
3 357 358 359 
3 360 361 362 
3 363 364 365 
3 366 367 368 
3 369 370 371 
3 372 373 374 
3 375 376 377 
3 378 379 380 
3 381 382 383 
3 384 385 386 
3 387 388 389 
3 390 391 392 
3 393 394 395 
3 396 397 398 
3 399 400 401 
3 402 403 404 
3 405 406 407 
3 408 409 410 
3 411 412 413 
3 414 415 416 
3 417 418 419 
3 420 421 422 
3 423 424 425 
3 426 427 428 
3 429 430 431 
3 432 433 434 
3 435 436 437 
3 438 439 440 
3 441 442 443 
3 444 445 446 
3 447 448 449 
3 450 451 452 
3 453 454 455 
3 456 457 458 
3 459 460 461 
3 462 463 464 
3 465 466 467 
3 468 469 470 
3 471 472 473 
3 474 475 476 
3 477 478 479 
3 480 481 482 
3 483 484 485 
3 486 487 488 
3 489 490 491 
3 492 493 494 
3 495 496 497 
3 498 499 500 
3 501 502 503 
3 504 505 506 
3 507 508 509 
3 510 511 512 
3 513 514 515 
3 516 517 518 
3 519 520 521 
3 522 523 524 
3 525 526 527 
3 528 529 530 
3 531 532 533 
3 534 535 536 
3 537 538 539 
3 540 541 542 
3 543 544 545 
3 546 547 548 
3 549 550 551 
3 552 553 554 
3 555 556 557 
3 558 559 560 
3 561 562 563 
3 564 565 566 
3 567 568 569 
3 570 571 572 
3 573 574 575 
3 576 577 578 
3 579 580 581 
3 582 583 584 
3 585 586 587 
3 588 589 590 
3 591 592 593 
3 594 595 596 
3 597 598 599 
3 600 601 602 
3 603 604 605 
3 606 607 608 
3 609 610 611 
3 612 613 614 
3 615 616 617 
3 618 619 620 
3 621 622 623 
3 624 625 626 
3 627 628 629 
3 630 631 632 
3 633 634 635 
