ply
format ascii 1.0
comment VCGLIB generated
element vertex 284
property float x
property float y
property float z
property float nx
property float ny
property float nz
property uchar red
property uchar green
property uchar blue
property uchar alpha
element face 564
property list uchar int vertex_indices
end_header
-1.523163 64.52 8.13 -0.1537901 0.7764914 0.6110725 255 64 0 255 
-6.853149 65.27998 -0 -0.4851922 0.8744076 5.947555e-09 250 65 0 255 
31.74684 100.08 0 -0.5017195 0.8650304 1.37915e-08 31 100 0 255 
39.36685 98.80998 6.1 -0.196788 0.4008746 0.894748 39 98 0 255 
64.76685 116.0799 0 -0.2471568 0.9689755 -2.191182e-08 64 116 0 255 
68.07684 113.04 3.56 -0.09506416 0.4747285 0.8749833 68 113 0 255 
96.26685 118.37 -0 0.06207992 0.9980712 0 96 118 0 255 
98.04684 114.05 2.06233 0.09823161 0.1566205 0.9827617 98 114 0 255 
114.2968 113.54 -0 0.4394881 0.8982484 0 114 113 0 255 
96.77684 54.86998 6.517095 0.4133786 0.5620603 0.7163842 96 54 0 255 
96.26685 72.90001 0 0.9406596 0.3393515 3.657386e-08 96 72 0 255 
106.9368 48.00999 0 0.6622661 0.7492687 1.239309e-08 106 48 0 255 
57.14685 62.73997 11.68 0.1196918 0.3625568 0.9242437 57 62 0 255 
72.13684 84.08 6.633346 0.1669532 0.09206581 0.981657 72 84 0 255 
82.80685 95.75999 4.012878 0.126179 0.02940976 0.9915715 82 95 0 255 
-173.3962 -11.11204 -0 -0.6489163 0.7608598 0 83 245 0 255 
-179.3596 -18.51365 7.62 -0.7184806 0.4791676 0.5041667 77 238 0 255 
-184.7376 -21.88988 -0 -0.9065443 0.4221109 0 72 235 0 255 
-154.6222 3.132233 -0 -0.562057 0.8270985 2.534613e-08 102 3 0 255 
-158.9449 -2.880463 13.97 -0.5845166 0.6774781 0.4465017 98 254 0 255 
-132.6646 15.83762 5.33 -0.5042831 0.8299965 0.2383367 124 15 0 255 
-91.58301 40.96202 -0 -0.4644185 0.8856158 2.315943e-08 165 40 0 255 
-93.10382 34.97737 18.29 -0.3882985 0.7810255 0.4891048 163 34 0 255 
-131.827 13.72096 13.97 -0.487202 0.8172491 0.3077958 125 13 0 255 
-47.35538 57.93788 -0 -0.2767109 0.9609532 -5.759763e-09 209 57 0 255 
-48.55493 52.67918 22.35 -0.183388 0.7398581 0.6472858 208 52 0 255 
-4.573151 49.53999 24.64 -0.01246931 0.6071723 0.7944725 252 49 0 255 
53.59685 48.00999 26.67 0.09111888 0.5879183 0.803772 53 48 0 255 
109.7268 36.06999 20.32 0.290382 0.664872 0.6882032 109 36 0 255 
164.5977 24.16576 11.68 0.2820808 0.7810359 0.5571476 164 24 0 255 
164.3093 28.40697 0 0.294888 0.9555319 5.356202e-09 164 28 0 255 
205.3376 15.53769 0 0.3433472 0.9392086 -2.34719e-08 205 15 0 255 
204.6789 3.807053 14.73 0.2944573 0.588468 0.7529944 204 3 0 255 
229.9593 6.926483 0 0.4060007 0.9138728 0 229 6 0 255 
230.8715 -8.854462 11.94 0.2971851 0.389724 0.8716629 230 248 0 255 
253.4436 -2.321793 0 0.4394486 0.8982677 0 253 254 0 255 
255.2799 -16.97031 7.87 0.1215749 0.4586342 0.8802695 255 240 0 255 
272.0586 -11.21724 0 0.46194 0.8869112 1.4426e-08 16 245 0 255 
274.1086 -20.24117 9.65 0.4189615 0.6971673 0.5817466 18 236 0 255 
284.51 -24.59681 0 0.6983442 0.7157621 -1.632372e-08 28 232 0 255 
281.0518 -26.84312 9.375875 0.5106686 0.7741283 0.3740895 25 230 0 255 
-134.8842 7.603134 22.35 -0.4262758 0.7215858 0.5455299 122 7 0 255 
-118.7851 4.991013 32.77 -0.2544999 0.5528802 0.7934439 138 4 0 255 
-87.93243 20.52956 31.70523 -0.2213526 0.500231 0.8371213 169 20 0 255 
-49.60266 33.91145 32 -0.1089049 0.4930768 0.8631425 207 33 0 255 
-4.573151 31.75999 35.81 -0.00389471 0.472798 0.8811622 252 31 0 255 
45.97684 30.48997 34.04 0.09796566 0.4161395 0.9040081 45 30 0 255 
106.4268 22.60997 28.45 0.1554063 0.4917455 0.8567585 106 22 0 255 
164.2561 16.56985 18.29 0.2244045 0.5582532 0.7987466 164 16 0 255 
-131.4974 -6.947311 36.58 -0.2482053 0.2111838 0.9454076 125 250 0 255 
-141.4966 -4.591209 31.75 -0.4703171 0.2874341 0.8343762 115 252 0 255 
-149.6792 -11.04578 27.43 -0.4835812 0.2549372 0.8373507 107 245 0 255 
-167.2928 -26.66084 20.83 -0.6508179 0.3880228 0.6525906 89 230 0 255 
-182.6414 -39.65448 10.16 -0.7542515 0.3287176 0.5683745 74 217 0 255 
-130.0458 -17.01208 35.81 -0.3080121 0.03005181 0.9509077 126 239 0 255 
-140.5706 -11.80264 30.99 -0.3935459 0.07655512 0.9161119 116 245 0 255 
-185.0463 -47.10091 13.97 -0.6370809 0.3140325 0.7039258 71 209 0 255 
-179.009 -57.28585 14.99 -0.3161879 -0.113718 0.9418564 77 199 0 255 
-207.502 -78.11794 7.37 -0.2374 -0.1127645 0.9648448 49 178 0 255 
-212.3748 -75.41514 7.37 -0.4401226 0.0731343 0.8949544 44 181 0 255 
-217.5038 -78.81209 4.06 -0.8193183 0.2907336 0.4941574 39 178 0 255 
-218.6436 -77.19215 -0 -0.9987522 -0.04994111 -5.88964e-09 38 179 0 255 
-192.4962 -47.75626 -0 -0.8390976 0.5439809 2.171532e-08 64 209 0 255 
-189.5161 -45.70598 5.08 -0.761671 0.4727647 0.4431149 67 211 0 255 
-151.5819 -24.64492 30.48 -0.2623648 0.1425524 0.9543813 105 232 0 255 
-143.5855 -17.41225 30.73 -0.3330381 0.1819777 0.9251864 113 239 0 255 
-150.7972 -27.51979 30.73 -0.3031083 0.09296468 0.9484107 106 229 0 255 
-164.5894 -30.95947 26.42 -0.4504709 0.07125975 0.8899427 92 226 0 255 
-161.7422 -36.54444 25.91 -0.3887872 -0.1141929 0.9142235 95 220 0 255 
-175.5276 -61.39826 16.26 -0.4022097 0.0801746 0.9120304 81 195 0 255 
-201.2574 -79.65031 8.38 -0.3147175 0.05108267 0.9478098 55 177 0 255 
-156.0699 -47.98344 27.04717 -0.4600986 -0.05787415 0.8859796 100 209 0 255 
-145.9485 -33.53195 34.54 -0.3080436 -0.0663126 0.9490584 111 223 0 255 
-123.8187 -43.26791 34.8 -0.185361 -0.3454289 0.9199566 133 213 0 255 
-154.0007 -53.75459 27.43 -0.2066349 -0.3509163 0.9133235 102 203 0 255 
-140.4437 -28.63096 34.8 -0.2943656 0.1850925 0.9375978 116 228 0 255 
-137.6539 -19.69126 34.54 -0.3568438 0.200183 0.9124633 119 237 0 255 
-124.8745 -31.45993 38.61 -0.2660299 -0.01655688 0.9638226 132 225 0 255 
-174.4335 -66.58667 18.29 -0.3618191 -0.04007446 0.9313866 82 190 0 255 
-197.6923 -82.75619 10.92 -0.2137874 -0.201147 0.9559471 59 174 0 255 
-151.7325 -75.6075 17.02 -0.03960762 -0.7933158 0.6075207 105 181 0 255 
-115.5171 -69.19439 22.35 -0.01412904 -0.7804672 0.6250371 141 187 0 255 
-169.2661 -74.92321 10.16 0.05981167 -0.8601828 0.5064664 87 182 0 255 
-174.22 -70.17667 17.27 0.0587224 -0.5510855 0.83238 82 186 0 255 
-85.39764 -50.28358 43.18 -0.2440318 -0.230251 0.9420366 171 206 0 255 
-84.45435 -60.30612 35.05 -0.1545852 -0.9007801 0.4058308 172 196 0 255 
-120.4849 -30.80115 40.39 -0.2461912 -0.05017404 0.9679217 136 226 0 255 
-79.86481 -20.40913 49.28 -0.1464788 -0.01276483 0.9891315 177 236 0 255 
-113.95 -13.50288 40.13 -0.223606 0.1300077 0.9659702 143 243 0 255 
-111.8611 -0.681808 36.58 -0.1710698 0.3739015 0.9115552 145 0 0 255 
-81.19751 3.403015 42.67 -0.1978068 0.3319821 0.9223126 175 3 0 255 
-49.00662 10.41141 46.23 -0.08347514 0.3461559 0.9344561 207 10 0 255 
-39.19025 -15.64094 51.05 -0.008113034 -0.05759506 0.9983071 217 241 0 255 
-0.003174 6.529009 48.01 0.01988914 0.2926556 0.9560111 0 6 0 255 
5.076843 -18.78999 51.05 0.02493849 -0.1118507 0.9934121 5 238 0 255 
48.00685 5.089981 46.23 0.07084343 0.3024414 0.9505317 48 5 0 255 
50.03685 -18.53999 49.02 0.041912 -0.1234528 0.991465 50 238 0 255 
103.8868 -1.010025 43.94 0.1385054 0.3081223 0.9412103 103 255 0 255 
103.3768 -27.93001 44.7 0.1506066 -0.2444317 0.9578992 103 229 0 255 
162.7132 -4.686424 33.02 0.2419191 0.2041094 0.9485856 162 252 0 255 
161.4177 -29.19355 28.45 0.193205 -0.3204234 0.9273622 161 227 0 255 
201.1734 -11.47618 23.37 0.2756457 0.09887604 0.9561606 201 245 0 255 
199.0702 -36.01879 21.84 0.2007909 -0.3531826 0.9137533 199 220 0 255 
228.4615 -21.14399 13.97 0.2554061 0.02728863 0.9664487 228 235 0 255 
226.7552 -36.33063 14.22 0.1882138 -0.3237909 0.927219 226 220 0 255 
248.4611 -25.74372 9.91 0.004172453 0.129425 0.9915804 248 231 0 255 
244.9365 -38.09956 10.67 -0.1693674 -0.2690491 0.9481178 244 218 0 255 
272.5167 -27.82566 18.29 0.01666299 0.5965368 0.8024127 16 229 0 255 
-46.20822 -47.93071 41.15 0.1101517 -0.6787661 0.7260463 210 209 0 255 
6.606842 -52.83 37.59 0.01174094 -0.7152801 0.6987393 6 204 0 255 
47.2407 -51.72131 38.1 0.03546008 -0.7374042 0.6745203 47 205 0 255 
98.29458 -53.79565 30.99 0.1364056 -0.788133 0.6001999 98 203 0 255 
159.8931 -50.21146 17.27 0.1279399 -0.7887149 0.6012989 159 206 0 255 
198.8694 -48.77163 9.65 0.1338317 -0.7847535 0.6051868 198 208 0 255 
225.2173 -46.75587 7.11 0.06717304 -0.7466266 0.6618434 225 210 0 255 
255.5049 -47.8636 5.59 -0.04148855 -0.8751656 0.4820415 255 209 0 255 
269.553 -46.43898 14.40978 -0.1456945 -0.9686517 0.2012143 13 210 0 255 
-59.38708 -63.49491 73.66 -0.6098003 0.1871877 0.7701327 197 193 0 255 
-60.37555 -65.28902 71.37 -0.220209 -0.9739113 -0.05481674 196 191 0 255 
-36.43719 -57.34738 64.52 0.661398 0.4532604 -0.597585 220 199 0 255 
-14.16031 -68.66568 77.22 0.2945578 -0.8501108 0.4365174 242 188 0 255 
-28.56253 -69.72392 80.77 0.04515828 -0.268846 0.962124 228 187 0 255 
-48.60242 -66.94185 80.01 -0.2407235 0.1448331 0.9597269 208 190 0 255 
3.046844 -66.03001 0 -0.02491944 -0.9996895 -1.058026e-08 3 190 0 255 
-44.98117 -63.83695 -0 0.1133376 -0.9935566 7.933703e-09 212 193 0 255 
95.54893 -61.46616 0 0.05084236 -0.9987067 0 95 195 0 255 
160.2626 -54.94367 0 0.08746275 -0.9961678 5.138291e-09 160 202 0 255 
223.6033 -50.94653 0 0.08890284 -0.9960403 -5.631761e-09 223 206 0 255 
256.8151 -49.49007 0 0.0417854 -0.9991266 -1.073085e-08 0 207 0 255 
-111.1731 -72.10411 -0 0.158535 -0.9873534 -1.015496e-08 145 184 0 255 
-75.90302 -67.89029 -0 0.1417156 -0.9899074 5.090297e-09 181 189 0 255 
-144.1214 -79.04956 -0 0.006221438 -0.9999807 -2.569104e-09 112 177 0 255 
-166.6438 -77.1781 -0 0.22127 -0.9752126 5.278814e-09 90 179 0 255 
-192.4884 -87.51345 -0 0.3406294 -0.9401977 -5.179678e-09 64 169 0 255 
-195.4128 -85.99606 7.87 0.2589012 -0.8081682 0.5289938 61 171 0 255 
-211.8871 -94.05957 -0 -0.170767 -0.9853114 -1.952228e-08 45 162 0 255 
-209.4261 -91.97621 4.57 -0.08410005 -0.8140624 0.5746562 47 165 0 255 
335.2148 -50.58827 86.61 -0.2823794 -0.01407417 0.9591995 79 206 0 255 
299.0243 -50.85016 73.15 -0.5226208 0.4883531 0.698841 43 206 0 255 
325.8626 -47.88381 63.25 0.9879434 0.06193917 -0.141885 69 209 0 255 
303.0631 -37.0138 9.65 0.2622727 0.9352769 0.2376348 47 219 0 255 
283.3859 -33.64085 20.90496 0.2151318 0.8517468 0.4777507 27 223 0 255 
294.8642 -33.79744 0 0.3890174 0.9212304 4.010281e-09 38 223 0 255 
314.2872 -37.56836 5.84 0.6134248 0.6778792 -0.4052034 58 219 0 255 
305.1856 -37.30477 0 0.5762636 -0.8172639 5.867077e-08 49 219 0 255 
273.2394 -36.25331 24.13 -0.5987443 0.3219293 0.733394 17 220 0 255 
-215.4139 -84.3341 3.81 -0.7953986 -0.2232207 0.5634835 41 172 0 255 
-215.9014 -84.04272 -0 -0.9818118 -0.1898569 -7.633637e-09 41 172 0 255 
-214.0606 -89.54407 4.83 -0.4984817 -0.2430403 0.8321342 42 167 0 255 
-215.8983 -90.16402 -0 -0.8750433 -0.4840448 0 41 166 0 255 
-28.41852 -70.57317 79.25 0.01652028 -0.9937836 -0.1100968 228 186 0 255 
-48.336 -68.8114 78.23 -0.2657995 -0.930056 0.2536664 208 188 0 255 
105.6668 93.72997 -0 0.9114699 -0.4113669 -6.640424e-08 105 93 0 255 
46.22684 -64.34258 0 0.04014119 -0.999194 1.572004e-08 46 192 0 255 
198.1769 -53.31513 0 0.08645488 -0.9962558 5.361e-09 198 203 0 255 
271.7986 -47.91888 0 0.1483087 -0.9889411 1.021333e-08 15 209 0 255 
299.2194 -53.4238 73.15 -0.3633559 -0.8169371 0.4478688 43 203 0 255 
282.1614 -48.75603 52.32 -0.6992615 -0.6526608 0.2916629 26 208 0 255 
282.0105 -44.36404 52.32 -0.2504283 0.8758746 0.4124674 26 212 0 255 
319.4437 -42.6443 21.59 0.9951943 -0.01548424 0.09668785 63 214 0 255 
-130.9188 18.49213 -0 -0.5202007 0.8540441 5.00013e-08 126 18 0 255 
39.36685 98.80998 -6.1 -0.196788 0.4008747 -0.894748 39 98 0 255 
-1.523163 64.52 -8.13 -0.1537901 0.7764914 -0.6110725 255 64 0 255 
68.07684 113.04 -3.56 -0.09506416 0.4747285 -0.8749833 68 113 0 255 
98.04684 114.05 -2.06233 0.09823161 0.1566205 -0.9827617 98 114 0 255 
96.77684 54.86998 -6.517095 0.4133787 0.5620603 -0.7163842 96 54 0 255 
72.13684 84.08 -6.633346 0.1669532 0.09206581 -0.981657 72 84 0 255 
57.14685 62.73997 -11.68 0.1196918 0.3625568 -0.9242437 57 62 0 255 
82.80685 95.75999 -4.012878 0.126179 0.02940977 -0.9915715 82 95 0 255 
-179.3596 -18.51365 -7.62 -0.7184806 0.4791676 -0.5041668 77 238 0 255 
-158.9449 -2.880463 -13.97 -0.5845166 0.6774781 -0.4465017 98 254 0 255 
-132.6646 15.83762 -5.33 -0.5042832 0.8299965 -0.2383367 124 15 0 255 
-131.827 13.72096 -13.97 -0.487202 0.8172491 -0.3077958 125 13 0 255 
-93.10382 34.97737 -18.29 -0.3882985 0.7810255 -0.4891048 163 34 0 255 
-48.55493 52.67918 -22.35 -0.183388 0.7398581 -0.6472858 208 52 0 255 
-4.573151 49.53999 -24.64 -0.0124693 0.6071723 -0.7944725 252 49 0 255 
53.59685 48.00999 -26.67 0.09111889 0.5879183 -0.803772 53 48 0 255 
109.7268 36.06999 -20.32 0.290382 0.664872 -0.6882032 109 36 0 255 
164.5977 24.16576 -11.68 0.2820808 0.7810359 -0.5571476 164 24 0 255 
204.6789 3.807053 -14.73 0.2944573 0.588468 -0.7529944 204 3 0 255 
230.8715 -8.854462 -11.94 0.2971851 0.389724 -0.8716629 230 248 0 255 
255.2799 -16.97031 -7.87 0.1215749 0.4586341 -0.8802695 255 240 0 255 
274.1086 -20.24117 -9.65 0.4189615 0.6971672 -0.5817466 18 236 0 255 
281.0518 -26.84312 -9.375875 0.5106686 0.7741284 -0.3740895 25 230 0 255 
-134.8842 7.603134 -22.35 -0.4262758 0.7215858 -0.5455299 122 7 0 255 
-118.7851 4.991013 -32.77 -0.2544999 0.5528802 -0.7934439 138 4 0 255 
-87.93243 20.52956 -31.70523 -0.2213526 0.500231 -0.8371213 169 20 0 255 
-49.60266 33.91145 -32 -0.1089049 0.4930768 -0.8631425 207 33 0 255 
-4.573151 31.75999 -35.81 -0.003894704 0.472798 -0.8811622 252 31 0 255 
45.97684 30.48997 -34.04 0.09796567 0.4161395 -0.9040081 45 30 0 255 
106.4268 22.60997 -28.45 0.1554063 0.4917455 -0.8567585 106 22 0 255 
164.2561 16.56985 -18.29 0.2244045 0.5582532 -0.7987465 164 16 0 255 
-141.4966 -4.591209 -31.75 -0.4703171 0.2874341 -0.8343761 115 252 0 255 
-131.4974 -6.947311 -36.58 -0.2482053 0.2111838 -0.9454076 125 250 0 255 
-149.6792 -11.04578 -27.43 -0.4835812 0.2549372 -0.8373507 107 245 0 255 
-167.2928 -26.66084 -20.83 -0.6508179 0.3880228 -0.6525906 89 230 0 255 
-182.6414 -39.65448 -10.16 -0.7542515 0.3287176 -0.5683745 74 217 0 255 
-140.5706 -11.80264 -30.99 -0.393546 0.0765551 -0.9161119 116 245 0 255 
-130.0458 -17.01208 -35.81 -0.3080121 0.0300518 -0.9509077 126 239 0 255 
-185.0463 -47.10091 -13.97 -0.6370809 0.3140325 -0.7039258 71 209 0 255 
-212.3748 -75.41514 -7.37 -0.4401226 0.07313429 -0.8949544 44 181 0 255 
-207.502 -78.11794 -7.37 -0.2374 -0.1127645 -0.9648448 49 178 0 255 
-179.009 -57.28585 -14.99 -0.3161879 -0.113718 -0.9418564 77 199 0 255 
-189.5161 -45.70598 -5.08 -0.761671 0.4727648 -0.4431149 67 211 0 255 
-217.5038 -78.81209 -4.06 -0.8193183 0.2907336 -0.4941574 39 178 0 255 
-150.7972 -27.51979 -30.73 -0.3031083 0.09296469 -0.9484107 106 229 0 255 
-143.5855 -17.41225 -30.73 -0.3330381 0.1819777 -0.9251864 113 239 0 255 
-151.5819 -24.64492 -30.48 -0.2623648 0.1425523 -0.9543813 105 232 0 255 
-164.5894 -30.95947 -26.42 -0.4504709 0.07125977 -0.8899427 92 226 0 255 
-161.7422 -36.54444 -25.91 -0.3887872 -0.1141928 -0.9142235 95 220 0 255 
-201.2574 -79.65031 -8.38 -0.2905544 -0.03989291 -0.9560266 55 177 0 255 
-175.5276 -61.39826 -16.26 -0.4022096 0.08017457 -0.9120304 81 195 0 255 
-156.0699 -47.98344 -27.04717 -0.4600986 -0.05787415 -0.8859796 100 209 0 255 
-145.9485 -33.53195 -34.54 -0.3080436 -0.0663126 -0.9490584 111 223 0 255 
-154.0007 -53.75459 -27.43 -0.2344952 -0.2757295 -0.9321938 102 203 0 255 
-123.8187 -43.26791 -34.8 -0.185361 -0.3454289 -0.9199566 133 213 0 255 
-140.4437 -28.63096 -34.8 -0.2943656 0.1850925 -0.9375978 116 228 0 255 
-137.6539 -19.69126 -34.54 -0.3568438 0.200183 -0.9124633 119 237 0 255 
-124.8745 -31.45993 -38.61 -0.2660299 -0.01655687 -0.9638226 132 225 0 255 
-197.6923 -82.75619 -10.92 -0.2407129 -0.1873651 -0.9523401 59 174 0 255 
-174.4335 -66.58667 -18.29 -0.3618191 -0.04007449 -0.9313866 82 190 0 255 
-136.1284 -47.34255 -31.75 -0.09120139 -0.3805344 -0.9202586 120 209 0 255 
-151.7325 -75.6075 -17.02 -0.02673119 -0.806574 -0.5905284 105 181 0 255 
-115.5171 -69.19439 -22.35 -0.01412904 -0.7804671 -0.6250372 141 187 0 255 
-174.22 -70.17667 -17.27 -0.04867763 -0.5690272 -0.8208767 82 186 0 255 
-169.2661 -74.92321 -10.16 0.04452768 -0.9309163 -0.3625082 87 182 0 255 
-84.45435 -60.30612 -35.05 -0.1545853 -0.9007801 -0.4058308 172 196 0 255 
-85.39764 -50.28358 -43.18 -0.2440318 -0.2302509 -0.9420366 171 206 0 255 
-79.86481 -20.40913 -49.28 -0.1464788 -0.01276483 -0.9891315 177 236 0 255 
-120.4849 -30.80115 -40.39 -0.2461912 -0.05017404 -0.9679217 136 226 0 255 
-113.95 -13.50288 -40.13 -0.223606 0.1300077 -0.9659702 143 243 0 255 
-111.8611 -0.681808 -36.58 -0.1710698 0.3739015 -0.9115552 145 0 0 255 
-81.19751 3.403015 -42.67 -0.1978068 0.3319821 -0.9223126 175 3 0 255 
-39.19025 -15.64094 -51.05 -0.008113036 -0.05759506 -0.9983071 217 241 0 255 
-49.00662 10.41141 -46.23 -0.08347513 0.3461559 -0.9344561 207 10 0 255 
5.076843 -18.78999 -51.05 0.02493849 -0.1118507 -0.9934121 5 238 0 255 
-0.003174 6.529009 -48.01 0.01988915 0.2926556 -0.9560111 0 6 0 255 
50.03685 -18.53999 -49.02 0.041912 -0.1234528 -0.991465 50 238 0 255 
48.00685 5.089981 -46.23 0.07084343 0.3024414 -0.9505317 48 5 0 255 
103.3768 -27.93001 -44.7 0.1506066 -0.2444317 -0.9578992 103 229 0 255 
103.8868 -1.010025 -43.94 0.1385054 0.3081223 -0.9412103 103 255 0 255 
161.4177 -29.19355 -28.45 0.193205 -0.3204234 -0.9273622 161 227 0 255 
162.7132 -4.686424 -33.02 0.2419191 0.2041094 -0.9485856 162 252 0 255 
199.0702 -36.01879 -21.84 0.2007909 -0.3531827 -0.9137533 199 220 0 255 
201.1734 -11.47618 -23.37 0.2756457 0.09887604 -0.9561606 201 245 0 255 
226.7552 -36.33063 -14.22 0.1882138 -0.3237908 -0.927219 226 220 0 255 
228.4615 -21.14399 -13.97 0.2554061 0.02728864 -0.9664487 228 235 0 255 
244.9365 -38.09956 -10.67 -0.1693674 -0.2690491 -0.9481178 244 218 0 255 
248.4611 -25.74372 -9.91 0.004172465 0.129425 -0.9915804 248 231 0 255 
272.5167 -27.82566 -18.29 0.01666301 0.5965368 -0.8024127 16 229 0 255 
-46.20822 -47.93071 -41.15 0.1101517 -0.6787661 -0.7260463 210 209 0 255 
6.606842 -52.83 -37.59 0.01174094 -0.7152801 -0.6987393 6 204 0 255 
47.2407 -51.72131 -38.1 0.03546008 -0.7374042 -0.6745203 47 205 0 255 
98.29458 -53.79565 -30.99 0.1364056 -0.788133 -0.6001999 98 203 0 255 
159.8931 -50.21146 -17.27 0.1279399 -0.7887149 -0.6012989 159 206 0 255 
198.8694 -48.77163 -9.65 0.1338317 -0.7847535 -0.6051868 198 208 0 255 
225.2173 -46.75587 -7.11 0.06717304 -0.7466266 -0.6618434 225 210 0 255 
255.5049 -47.8636 -5.59 -0.04148856 -0.8751656 -0.4820415 255 209 0 255 
269.553 -46.43898 -14.40978 -0.1456945 -0.9686517 -0.2012143 13 210 0 255 
-60.37555 -65.28902 -71.37 -0.220209 -0.9739113 0.05481672 196 191 0 255 
-59.38708 -63.49491 -73.66 -0.6098003 0.1871877 -0.7701327 197 193 0 255 
-36.43719 -57.34738 -64.52 0.6613978 0.4532607 0.5975849 220 199 0 255 
-14.16031 -68.66568 -77.22 0.2945578 -0.8501108 -0.4365174 242 188 0 255 
-48.60242 -66.94185 -80.01 -0.2407235 0.144833 -0.9597269 208 190 0 255 
-28.56253 -69.72392 -80.77 0.04515828 -0.268846 -0.962124 228 187 0 255 
-195.4128 -85.99606 -7.87 0.2589012 -0.8081682 -0.5289938 61 171 0 255 
-209.4261 -91.97621 -4.57 -0.1538143 -0.7080037 -0.6892546 47 165 0 255 
325.8626 -47.88381 -63.25 0.9879434 0.06193917 0.141885 69 209 0 255 
299.0243 -50.85016 -73.15 -0.5226208 0.4883533 -0.6988409 43 206 0 255 
335.2148 -50.58827 -86.61 -0.2823794 -0.01407423 -0.9591995 79 206 0 255 
283.3859 -33.64085 -20.90496 0.2151318 0.8517468 -0.4777507 27 223 0 255 
303.0631 -37.0138 -9.65 0.2622727 0.9352769 -0.2376348 47 219 0 255 
314.2872 -37.56836 -5.84 0.6134248 0.6778792 0.4052035 58 219 0 255 
273.2394 -36.25331 -24.13 -0.5987443 0.3219293 -0.7333941 17 220 0 255 
-215.4139 -84.3341 -3.81 -0.7953986 -0.2232207 -0.5634835 41 172 0 255 
-214.0606 -89.54407 -4.83 -0.4838101 -0.3111128 -0.8180078 42 167 0 255 
-48.336 -68.8114 -78.23 -0.2657995 -0.930056 -0.2536664 208 188 0 255 
-28.41852 -70.57317 -79.25 0.01652029 -0.9937836 0.1100968 228 186 0 255 
282.0105 -44.36404 -52.32 -0.2504283 0.8758746 -0.4124674 26 212 0 255 
282.1614 -48.75603 -52.32 -0.6992617 -0.6526607 -0.291663 26 208 0 255 
299.2194 -53.4238 -73.15 -0.3633559 -0.816937 -0.4478689 43 203 0 255 
319.4437 -42.6443 -21.59 0.9951943 -0.01548424 -0.09668781 63 214 0 255 
117.3468 105.42 0 0.9919591 -0.1265591 0 117 105 0 255 
-136.1284 -47.34255 31.75 -0.09120139 -0.3805344 0.9202586 120 209 0 255 
3 3 2 1 
3 1 0 3 
3 5 4 2 
3 2 3 5 
3 6 4 5 
3 5 7 6 
3 8 6 7 
3 11 10 9 
3 12 13 3 
3 3 0 12 
3 14 5 3 
3 3 13 14 
3 7 5 14 
3 17 16 15 
3 19 18 15 
3 15 16 19 
3 21 160 20 
3 21 23 22 
3 23 21 20 
3 24 21 22 
3 22 25 24 
3 0 1 24 
3 24 25 0 
3 26 0 25 
3 27 12 0 
3 0 26 27 
3 27 28 9 
3 9 12 27 
3 11 9 28 
3 30 11 28 
3 28 29 30 
3 31 30 29 
3 29 32 31 
3 33 31 32 
3 32 34 33 
3 35 33 34 
3 34 36 35 
3 37 35 36 
3 36 38 37 
3 39 37 38 
3 38 40 39 
3 23 19 41 
3 22 23 41 
3 42 22 41 
3 42 43 22 
3 25 22 43 
3 43 44 25 
3 26 25 44 
3 44 45 26 
3 27 26 45 
3 45 46 27 
3 28 27 46 
3 46 47 28 
3 48 29 28 
3 28 47 48 
3 32 29 48 
3 50 49 42 
3 42 41 50 
3 19 51 50 
3 50 41 19 
3 52 51 19 
3 19 16 52 
3 53 52 16 
3 50 55 54 
3 54 49 50 
3 51 55 50 
3 53 56 52 
3 59 58 57 
3 57 56 59 
3 62 61 60 
3 60 63 62 
3 17 63 53 
3 53 16 17 
3 62 63 17 
3 65 51 64 
3 64 66 65 
3 51 52 67 
3 67 64 51 
3 66 64 67 
3 67 68 66 
3 57 68 67 
3 67 56 57 
3 69 57 58 
3 58 70 69 
3 71 68 57 
3 57 69 71 
3 72 66 68 
3 283 73 72 
3 72 71 74 
3 56 53 63 
3 65 66 75 
3 76 65 75 
3 54 76 75 
3 77 54 75 
3 72 77 75 
3 66 72 75 
3 69 70 79 
3 79 78 69 
3 71 69 78 
3 78 74 71 
3 283 74 80 
3 283 81 73 
3 81 283 80 
3 82 80 74 
3 74 83 82 
3 84 73 81 
3 81 85 84 
3 87 86 73 
3 73 84 87 
3 86 77 73 
3 88 54 77 
3 77 86 88 
3 89 42 49 
3 89 49 88 
3 88 49 54 
3 90 88 86 
3 86 87 90 
3 91 90 87 
3 87 92 91 
3 93 91 92 
3 92 94 93 
3 95 93 94 
3 94 96 95 
3 97 95 96 
3 96 98 97 
3 99 97 98 
3 98 100 99 
3 101 99 100 
3 100 102 101 
3 103 101 102 
3 102 104 103 
3 105 103 104 
3 104 106 105 
3 89 88 90 
3 43 89 90 
3 42 89 43 
3 44 43 90 
3 90 91 44 
3 45 44 91 
3 91 93 45 
3 46 45 93 
3 93 95 46 
3 47 46 95 
3 95 97 47 
3 48 47 97 
3 97 99 48 
3 32 48 99 
3 99 101 32 
3 34 32 101 
3 101 103 34 
3 36 34 103 
3 103 105 36 
3 107 38 36 
3 36 105 107 
3 40 38 107 
3 92 87 84 
3 84 108 92 
3 94 92 108 
3 108 109 94 
3 96 94 109 
3 109 110 96 
3 98 96 110 
3 110 111 98 
3 100 98 111 
3 111 112 100 
3 102 100 112 
3 112 113 102 
3 104 102 113 
3 113 114 104 
3 106 104 114 
3 114 115 106 
3 116 106 115 
3 117 84 85 
3 85 118 117 
3 108 84 117 
3 117 119 108 
3 121 120 119 
3 121 119 122 
3 122 119 117 
3 123 109 108 
3 108 124 123 
3 126 112 111 
3 111 125 126 
3 128 115 114 
3 114 127 128 
3 130 85 81 
3 81 129 130 
3 124 108 85 
3 85 130 124 
3 129 81 80 
3 80 131 129 
3 131 80 82 
3 82 132 131 
3 132 82 134 
3 134 133 132 
3 82 83 134 
3 136 135 133 
3 133 134 136 
3 139 138 137 
3 40 141 140 
3 140 142 40 
3 142 140 143 
3 143 144 142 
3 106 145 107 
3 107 105 106 
3 116 145 106 
3 59 56 63 
3 63 60 59 
3 61 147 146 
3 146 60 61 
3 59 60 146 
3 146 58 59 
3 74 78 83 
3 79 134 83 
3 83 78 79 
3 134 79 136 
3 148 136 79 
3 79 70 148 
3 58 146 148 
3 148 70 58 
3 149 135 136 
3 136 148 149 
3 146 147 149 
3 149 148 146 
3 55 51 65 
3 76 54 55 
3 73 77 72 
3 56 67 52 
3 65 76 55 
3 151 150 121 
3 121 122 151 
3 151 122 117 
3 117 118 151 
3 120 121 150 
3 108 119 118 
3 118 85 108 
3 119 120 150 
3 119 151 118 
3 150 151 119 
3 10 13 12 
3 12 9 10 
3 10 152 14 
3 14 13 10 
3 7 152 282 
3 125 111 110 
3 110 153 125 
3 153 110 109 
3 109 123 153 
3 127 114 113 
3 113 154 127 
3 112 126 154 
3 154 113 112 
3 115 128 155 
3 155 116 115 
3 157 156 138 
3 138 158 157 
3 157 158 145 
3 145 116 157 
3 137 138 156 
3 40 142 39 
3 116 155 144 
3 116 144 143 
3 143 159 116 
3 116 159 157 
3 157 159 139 
3 139 156 157 
3 156 139 137 
3 158 138 139 
3 139 159 158 
3 159 143 140 
3 140 158 159 
3 158 140 141 
3 158 141 145 
3 141 40 107 
3 107 145 141 
3 18 19 20 
3 20 160 18 
3 19 23 20 
3 1 2 161 
3 161 162 1 
3 2 4 163 
3 163 161 2 
3 163 4 6 
3 6 164 163 
3 164 6 8 
3 165 10 11 
3 167 162 161 
3 161 166 167 
3 161 163 168 
3 168 166 161 
3 168 163 164 
3 15 169 17 
3 15 18 170 
3 170 169 15 
3 171 160 21 
3 21 172 171 
3 172 21 173 
3 173 21 24 
3 24 174 173 
3 24 1 162 
3 162 174 24 
3 174 162 175 
3 162 167 176 
3 176 175 162 
3 176 167 165 
3 165 177 176 
3 177 165 11 
3 177 11 30 
3 30 178 177 
3 178 30 31 
3 31 179 178 
3 179 31 33 
3 33 180 179 
3 180 33 35 
3 35 181 180 
3 181 35 37 
3 37 182 181 
3 182 37 39 
3 39 183 182 
3 184 170 172 
3 173 185 184 
3 173 184 172 
3 173 186 185 
3 186 173 174 
3 174 187 186 
3 187 174 175 
3 175 188 187 
3 188 175 176 
3 176 189 188 
3 189 176 177 
3 177 190 189 
3 177 178 191 
3 191 190 177 
3 191 178 179 
3 185 193 192 
3 192 184 185 
3 192 194 170 
3 170 184 192 
3 170 194 195 
3 195 169 170 
3 169 195 196 
3 198 197 192 
3 192 193 198 
3 192 197 194 
3 195 199 196 
3 202 201 200 
3 200 199 202 
3 204 61 62 
3 62 203 204 
3 196 203 17 
3 17 169 196 
3 17 203 62 
3 207 194 206 
3 206 205 207 
3 208 195 194 
3 194 207 208 
3 208 207 205 
3 205 209 208 
3 208 209 202 
3 202 199 208 
3 201 202 211 
3 211 210 201 
3 202 209 212 
3 212 211 202 
3 209 205 213 
3 213 221 214 
3 214 212 213 
3 203 196 199 
3 216 205 206 
3 216 206 217 
3 216 217 198 
3 216 198 218 
3 216 218 213 
3 216 213 205 
3 219 210 211 
3 211 220 219 
3 220 211 212 
3 212 214 220 
3 222 214 221 
3 221 223 222 
3 223 221 215 
3 222 225 224 
3 224 214 222 
3 223 215 227 
3 227 226 223 
3 215 229 228 
3 228 227 215 
3 215 218 229 
3 218 198 230 
3 230 229 218 
3 193 230 198 
3 230 193 231 
3 185 231 193 
3 229 230 232 
3 232 228 229 
3 228 232 234 
3 234 233 228 
3 233 234 236 
3 236 235 233 
3 235 236 238 
3 238 237 235 
3 237 238 240 
3 240 239 237 
3 239 240 242 
3 242 241 239 
3 241 242 244 
3 244 243 241 
3 243 244 246 
3 246 245 243 
3 245 246 248 
3 248 247 245 
3 232 230 231 
3 232 231 186 
3 186 231 185 
3 232 186 187 
3 187 234 232 
3 234 187 188 
3 188 236 234 
3 236 188 189 
3 189 238 236 
3 238 189 190 
3 190 240 238 
3 240 190 191 
3 191 242 240 
3 242 191 179 
3 179 244 242 
3 244 179 180 
3 180 246 244 
3 246 180 181 
3 181 248 246 
3 249 248 181 
3 181 182 249 
3 249 182 183 
3 227 228 233 
3 233 250 227 
3 250 233 235 
3 235 251 250 
3 251 235 237 
3 237 252 251 
3 252 237 239 
3 239 253 252 
3 253 239 241 
3 241 254 253 
3 254 241 243 
3 243 255 254 
3 255 243 245 
3 245 256 255 
3 256 245 247 
3 247 257 256 
3 257 247 258 
3 226 227 260 
3 260 259 226 
3 260 227 250 
3 250 261 260 
3 263 260 261 
3 263 261 264 
3 264 261 262 
3 250 251 123 
3 123 124 250 
3 253 254 126 
3 126 125 253 
3 256 257 128 
3 128 127 256 
3 223 226 130 
3 130 129 223 
3 226 250 124 
3 124 130 226 
3 222 223 129 
3 129 131 222 
3 225 222 131 
3 131 132 225 
3 265 225 132 
3 132 133 265 
3 265 224 225 
3 133 135 266 
3 266 265 133 
3 269 268 267 
3 271 270 183 
3 183 142 271 
3 272 271 142 
3 142 144 272 
3 249 273 247 
3 247 248 249 
3 247 273 258 
3 203 199 200 
3 200 204 203 
3 274 147 61 
3 61 204 274 
3 274 204 200 
3 200 201 274 
3 224 220 214 
3 224 265 219 
3 219 220 224 
3 266 219 265 
3 266 275 210 
3 210 219 266 
3 275 274 201 
3 201 210 275 
3 266 135 149 
3 149 275 266 
3 149 147 274 
3 274 275 149 
3 206 194 197 
3 197 198 217 
3 213 218 215 
3 195 208 199 
3 197 217 206 
3 264 277 276 
3 276 263 264 
3 260 263 276 
3 276 259 260 
3 277 264 262 
3 259 261 250 
3 250 226 259 
3 261 276 277 
3 276 261 259 
3 262 261 277 
3 167 166 10 
3 10 165 167 
3 168 152 10 
3 10 166 168 
3 152 164 282 
3 164 152 168 
3 252 253 125 
3 125 153 252 
3 251 252 153 
3 153 123 251 
3 255 256 127 
3 127 154 255 
3 154 126 254 
3 254 255 154 
3 155 128 257 
3 257 258 155 
3 268 280 279 
3 279 278 268 
3 273 278 279 
3 279 258 273 
3 280 268 269 
3 39 142 183 
3 144 155 258 
3 258 281 272 
3 281 258 279 
3 144 258 272 
3 267 281 279 
3 279 280 267 
3 269 267 280 
3 267 268 278 
3 278 281 267 
3 271 272 281 
3 281 278 271 
3 270 271 278 
3 273 270 278 
3 249 183 270 
3 270 273 249 
3 171 170 18 
3 18 160 171 
3 171 172 170 
3 213 212 209 
3 68 71 72 
3 152 7 14 
3 7 282 8 
3 282 164 8 
3 221 213 215 
3 283 72 74 
