ply
format ascii 1.0
comment VCGLIB generated
comment TextureFile dummy.png
element vertex 372
property float x
property float y
property float z
property float nx
property float ny
property float nz
property uchar red
property uchar green
property uchar blue
property uchar alpha
property float texture_u
property float texture_v
element face 124
property list uchar int vertex_indices
end_header
88.8271 -86.2692 -46.4816 0.9362304 -0.3506601 0.02259001 0 255 255 255 0.051762 0.03202
108.702 -30.6161 -6.27708 0.9362304 -0.3506601 0.02259001 0 255 255 255 0.051548 0.068966
87.855 -86.6597 -12.2522 0.9362304 -0.3506601 0.02259001 0 255 255 255 0.051784 0.031613
88.8271 -86.2692 -46.4816 0.23802 -0.152339 -0.9592389 0 255 255 255 0.051762 0.03202
65.7893 4.10641 -66.5509 0.23802 -0.152339 -0.9592389 0 255 255 255 0.05282 0.082163
111.156 -6.92972 -53.5414 0.23802 -0.152339 -0.9592389 0 255 255 255 0.051609 0.08362
43.8965 -79.7209 -59.1618 -0.6558611 0.1054 -0.7474871 0 255 255 255 0.052938 0.027947
33.5571 -8.65506 -40.0691 -0.6558611 0.1054 -0.7474871 0 255 255 255 0.053572 0.068762
65.7893 4.10641 -66.5509 -0.6558611 0.1054 -0.7474871 0 255 255 255 0.05282 0.082163
27.6462 -76.2925 -37.4752 -0.8880572 0.09486002 0.4498401 0 255 255 255 0.053369 0.02711
58.7874 -27.9708 13.8126 -0.8880572 0.09486002 0.4498401 0 255 255 255 0.05283 0.061662
33.5571 -8.65506 -40.0691 -0.8880572 0.09486002 0.4498401 0 255 255 255 0.053572 0.068762
87.855 -86.6597 -12.2522 0.3191211 -0.2481571 0.9146473 0 255 255 255 0.051784 0.031613
58.7874 -27.9708 13.8126 0.3191211 -0.2481571 0.9146473 0 255 255 255 0.05283 0.061662
47.5476 -77.4825 4.30095 0.3191211 -0.2481571 0.9146473 0 255 255 255 0.052857 0.029941
88.8271 -86.2692 -46.4816 0.127956 -0.9917501 -0.007680001 0 255 255 255 0.051762 0.03202
87.855 -86.6597 -12.2522 0.127956 -0.9917501 -0.007680001 0 255 255 255 0.051784 0.031613
57.0066 -90.499 -30.4316 0.127956 -0.9917501 -0.007680001 0 255 255 255 0.052548 0.023813
43.8965 -79.7209 -59.1618 -0.04309601 -0.9417213 -0.3336221 0 255 255 255 0.052938 0.027947
88.8271 -86.2692 -46.4816 -0.04309601 -0.9417213 -0.3336221 0 255 255 255 0.051762 0.03202
57.0066 -90.499 -30.4316 -0.04309601 -0.9417213 -0.3336221 0 255 255 255 0.052548 0.023813
27.6462 -76.2925 -37.4752 -0.399501 -0.903265 -0.156561 0 255 255 255 0.053369 0.02711
43.8965 -79.7209 -59.1618 -0.399501 -0.903265 -0.156561 0 255 255 255 0.052938 0.027947
57.0066 -90.499 -30.4316 -0.399501 -0.903265 -0.156561 0 255 255 255 0.052548 0.023813
47.5476 -77.4825 4.30095 -0.4649019 -0.8631938 0.1968829 0 255 255 255 0.052857 0.029941
27.6462 -76.2925 -37.4752 -0.4649019 -0.8631938 0.1968829 0 255 255 255 0.053369 0.02711
57.0066 -90.499 -30.4316 -0.4649019 -0.8631938 0.1968829 0 255 255 255 0.052548 0.023813
87.855 -86.6597 -12.2522 -0.07810999 -0.9403449 0.331135 0 255 255 255 0.051784 0.031613
47.5476 -77.4825 4.30095 -0.07810999 -0.9403449 0.331135 0 255 255 255 0.052857 0.029941
57.0066 -90.499 -30.4316 -0.07810999 -0.9403449 0.331135 0 255 255 255 0.052548 0.023813
105.972 103.545 -24.5837 0.8372423 0.3409021 -0.4275641 0 255 255 255 0.052319 0.149009
115.772 48.7249 -49.1027 0.8372423 0.3409021 -0.4275641 0 255 255 255 0.051783 0.117849
101.891 108.096 -28.9464 0.8372423 0.3409021 -0.4275641 0 255 255 255 0.052447 0.151013
115.772 48.7249 -49.1027 0.3671161 0.3311251 -0.8692422 0 255 255 255 0.051783 0.117849
85.9934 62.0557 -56.6012 0.3671161 0.3311251 -0.8692422 0 255 255 255 0.05261 0.120546
99.6865 103.537 -35.0165 0.3671161 0.3311251 -0.8692422 0 255 255 255 0.052479 0.147884
85.9934 62.0557 -56.6012 -0.5778559 0.518652 -0.630145 0 255 255 255 0.05261 0.120546
62.1775 67.1837 -30.5409 -0.5778559 0.518652 -0.630145 0 255 255 255 0.053242 0.119382
99.6865 103.537 -35.0165 -0.5778559 0.518652 -0.630145 0 255 255 255 0.052479 0.147884
62.1775 67.1837 -30.5409 -0.6201031 0.5814041 0.5267271 0 255 255 255 0.053242 0.119382
82.2556 55.6106 5.87104 -0.6201031 0.5814041 0.5267271 0 255 255 255 0.052671 0.116012
101.891 108.096 -28.9464 -0.6201031 0.5814041 0.5267271 0 255 255 255 0.052447 0.151013
82.2556 55.6106 5.87104 -0.1827359 0.5900489 0.7864158 0 255 255 255 0.052671 0.116012
105.972 103.545 -24.5837 -0.1827359 0.5900489 0.7864158 0 255 255 255 0.052319 0.149009
101.891 108.096 -28.9464 -0.1827359 0.5900489 0.7864158 0 255 255 255 0.052447 0.151013
111.156 -6.92972 -53.5414 0.9944219 -0.105469 -0.001227 0 255 255 255 0.051609 0.08362
117.003 47.6331 -4.73233 0.9944219 -0.105469 -0.001227 0 255 255 255 0.051746 0.117413
108.702 -30.6161 -6.27708 0.9944219 -0.105469 -0.001227 0 255 255 255 0.051548 0.068966
65.7893 4.10641 -66.5509 0.287051 0.05247201 -0.9564771 0 255 255 255 0.05282 0.082163
115.772 48.7249 -49.1027 0.287051 0.05247201 -0.9564771 0 255 255 255 0.051783 0.117849
111.156 -6.92972 -53.5414 0.287051 0.05247201 -0.9564771 0 255 255 255 0.051609 0.08362
65.7893 4.10641 -66.5509 -0.6582749 0.344435 -0.6693569 0 255 255 255 0.05282 0.082163
62.1775 67.1837 -30.5409 -0.6582749 0.344435 -0.6693569 0 255 255 255 0.053242 0.119382
85.9934 62.0557 -56.6012 -0.6582749 0.344435 -0.6693569 0 255 255 255 0.05261 0.120546
33.5571 -8.65506 -40.0691 -0.8152592 0.2415401 0.5263182 0 255 255 255 0.053572 0.068762
82.2556 55.6106 5.87104 -0.8152592 0.2415401 0.5263182 0 255 255 255 0.052671 0.116012
62.1775 67.1837 -30.5409 -0.8152592 0.2415401 0.5263182 0 255 255 255 0.053242 0.119382
108.702 -30.6161 -6.27708 0.3725751 -0.016452 0.9278563 0 255 255 255 0.051548 0.068966
82.2556 55.6106 5.87104 0.3725751 -0.016452 0.9278563 0 255 255 255 0.052671 0.116012
58.7874 -27.9708 13.8126 0.3725751 -0.016452 0.9278563 0 255 255 255 0.05283 0.061662
99.6865 103.537 -35.0165 -0.6879218 0.6778718 -0.2593329 0 255 255 255 0.052479 0.147884
62.1775 67.1837 -30.5409 -0.6879218 0.6778718 -0.2593329 0 255 255 255 0.053242 0.119382
101.891 108.096 -28.9464 -0.6879218 0.6778718 -0.2593329 0 255 255 255 0.052447 0.151013
115.772 48.7249 -49.1027 0.7553209 0.362049 -0.54627 0 255 255 255 0.051783 0.117849
99.6865 103.537 -35.0165 0.7553209 0.362049 -0.54627 0 255 255 255 0.052479 0.147884
101.891 108.096 -28.9464 0.7553209 0.362049 -0.54627 0 255 255 255 0.052447 0.151013
82.2556 55.6106 5.87104 0.3481691 0.3738991 0.8596382 0 255 255 255 0.052671 0.116012
117.003 47.6331 -4.73233 0.3481691 0.3738991 0.8596382 0 255 255 255 0.051746 0.117413
105.972 103.545 -24.5837 0.3481691 0.3738991 0.8596382 0 255 255 255 0.052319 0.149009
117.003 47.6331 -4.73233 0.9823353 0.1857501 -0.02267701 0 255 255 255 0.051746 0.117413
115.772 48.7249 -49.1027 0.9823353 0.1857501 -0.02267701 0 255 255 255 0.051783 0.117849
105.972 103.545 -24.5837 0.9823353 0.1857501 -0.02267701 0 255 255 255 0.052319 0.149009
-75.8772 -91.4479 -7.47352 -0.9073347 -0.3515299 0.2305869 0 255 255 255 0.053163 0.036248
-115.332 -27.8729 -65.8048 -0.9073347 -0.3515299 0.2305869 0 255 255 255 0.053554 0.070621
-82.0151 -101.238 -46.5506 -0.9073347 -0.3515299 0.2305869 0 255 255 255 0.053326 0.033109
-75.8772 -91.4479 -7.47352 -0.07052602 0.07831002 0.9944313 0 255 255 255 0.053163 0.036248
-54.0862 34.7375 -15.865 -0.07052602 0.07831002 0.9944313 0 255 255 255 0.052112 0.086823
-110.938 16.5929 -18.4681 -0.07052602 0.07831002 0.9944313 0 255 255 255 0.053244 0.089022
-19.0999 -79.3907 -3.83343 0.752756 0.29291 0.589544 0 255 255 255 0.052064 0.031437
-18.9604 10.4164 -48.6313 0.752756 0.29291 0.589544 0 255 255 255 0.051596 0.070141
-54.0862 34.7375 -15.865 0.752756 0.29291 0.589544 0 255 255 255 0.052112 0.086823
-4.34644 -80.7244 -32.765 0.7781451 0.015464 -0.6278941 0 255 255 255 0.051801 0.02826
-59.0706 -29.918 -99.333 0.7781451 0.015464 -0.6278941 0 255 255 255 0.052537 0.059819
-18.9604 10.4164 -48.6313 0.7781451 0.015464 -0.6278941 0 255 255 255 0.051596 0.070141
-82.0151 -101.238 -46.5506 -0.4438211 -0.4364401 -0.7826512 0 255 255 255 0.053326 0.033109
-59.0706 -29.918 -99.333 -0.4438211 -0.4364401 -0.7826512 0 255 255 255 0.052537 0.059819
-37.4817 -93.5659 -76.0826 -0.4438211 -0.4364401 -0.7826512 0 255 255 255 0.052473 0.028565
-75.8772 -91.4479 -7.47352 -0.103266 -0.9608907 0.2569539 0 255 255 255 0.053163 0.036248
-82.0151 -101.238 -46.5506 -0.103266 -0.9608907 0.2569539 0 255 255 255 0.053326 0.033109
-40.0122 -101.538 -30.7941 -0.103266 -0.9608907 0.2569539 0 255 255 255 0.05256 0.025573
-19.0999 -79.3907 -3.83343 0.136943 -0.8148932 0.5632012 0 255 255 255 0.052064 0.031437
-75.8772 -91.4479 -7.47352 0.136943 -0.8148932 0.5632012 0 255 255 255 0.053163 0.036248
-40.0122 -101.538 -30.7941 0.136943 -0.8148932 0.5632012 0 255 255 255 0.05256 0.025573
-4.34644 -80.7244 -32.765 0.4942958 -0.8195507 0.2898419 0 255 255 255 0.051801 0.02826
-19.0999 -79.3907 -3.83343 0.4942958 -0.8195507 0.2898419 0 255 255 255 0.052064 0.031437
-40.0122 -101.538 -30.7941 0.4942958 -0.8195507 0.2898419 0 255 255 255 0.05256 0.025573
-37.4817 -93.5659 -76.0826 0.4950519 -0.8600078 -0.123735 0 255 255 255 0.052473 0.028565
-4.34644 -80.7244 -32.765 0.4950519 -0.8600078 -0.123735 0 255 255 255 0.051801 0.02826
-40.0122 -101.538 -30.7941 0.4950519 -0.8600078 -0.123735 0 255 255 255 0.05256 0.025573
-82.0151 -101.238 -46.5506 0.05674 -0.983806 -0.170019 0 255 255 255 0.053326 0.033109
-37.4817 -93.5659 -76.0826 0.05674 -0.983806 -0.170019 0 255 255 255 0.052473 0.028565
-40.0122 -101.538 -30.7941 0.05674 -0.983806 -0.170019 0 255 255 255 0.05256 0.025573
-123.851 156.429 -85.1346 -0.7682257 0.3658818 0.5253187 0 255 255 255 0.052755 0.151603
-124.076 89.807 -39.0616 -0.7682257 0.3658818 0.5253187 0 255 255 255 0.053104 0.122912
-118.469 163.682 -82.3146 -0.7682257 0.3658818 0.5253187 0 255 255 255 0.052619 0.153781
-124.076 89.807 -39.0616 -0.2247361 0.4687732 0.8542514 0 255 255 255 0.053104 0.122912
-87.6992 109.572 -40.3378 -0.2247361 0.4687732 0.8542514 0 255 255 255 0.052338 0.125022
-113.936 159.223 -74.4862 -0.2247361 0.4687732 0.8542514 0 255 255 255 0.052559 0.151059
-87.6992 109.572 -40.3378 0.6566703 0.6310434 0.4129992 0 255 255 255 0.052338 0.125022
-64.8569 109.305 -76.249 0.6566703 0.6310434 0.4129992 0 255 255 255 0.051922 0.120879
-113.936 159.223 -74.4862 0.6566703 0.6310434 0.4129992 0 255 255 255 0.052559 0.151059
-64.8569 109.305 -76.249 0.5025841 0.4106501 -0.7607731 0 255 255 255 0.051922 0.120879
-95.8311 84.0356 -110.351 0.5025841 0.4106501 -0.7607731 0 255 255 255 0.052618 0.115443
-118.469 163.682 -82.3146 0.5025841 0.4106501 -0.7607731 0 255 255 255 0.052619 0.153781
-95.8311 84.0356 -110.351 0.033696 0.340361 -0.9396909 0 255 255 255 0.052618 0.115443
-123.851 156.429 -85.1346 0.033696 0.340361 -0.9396909 0 255 255 255 0.052755 0.151603
-118.469 163.682 -82.3146 0.033696 0.340361 -0.9396909 0 255 255 255 0.052619 0.153781
-110.938 16.5929 -18.4681 -0.9671057 -0.134362 0.215994 0 255 255 255 0.053244 0.089022
-135.003 76.3409 -89.0509 -0.9671057 -0.134362 0.215994 0 255 255 255 0.053374 0.119031
-115.332 -27.8729 -65.8048 -0.9671057 -0.134362 0.215994 0 255 255 255 0.053554 0.070621
-54.0862 34.7375 -15.865 -0.123197 0.248158 0.9608539 0 255 255 255 0.052112 0.086823
-124.076 89.807 -39.0616 -0.123197 0.248158 0.9608539 0 255 255 255 0.053104 0.122912
-110.938 16.5929 -18.4681 -0.123197 0.248158 0.9608539 0 255 255 255 0.053244 0.089022
-54.0862 34.7375 -15.865 0.7395851 0.4848571 0.4668271 0 255 255 255 0.052112 0.086823
-64.8569 109.305 -76.249 0.7395851 0.4848571 0.4668271 0 255 255 255 0.051922 0.120879
-87.6992 109.572 -40.3378 0.7395851 0.4848571 0.4668271 0 255 255 255 0.052338 0.125022
-18.9604 10.4164 -48.6313 0.6889552 0.120136 -0.7147782 0 255 255 255 0.051596 0.070141
-95.8311 84.0356 -110.351 0.6889552 0.120136 -0.7147782 0 255 255 255 0.052618 0.115443
-64.8569 109.305 -76.249 0.6889552 0.120136 -0.7147782 0 255 255 255 0.051922 0.120879
-115.332 -27.8729 -65.8048 -0.503132 -0.24251 -0.8294861 0 255 255 255 0.053554 0.070621
-95.8311 84.0356 -110.351 -0.503132 -0.24251 -0.8294861 0 255 255 255 0.052618 0.115443
-59.0706 -29.918 -99.333 -0.503132 -0.24251 -0.8294861 0 255 255 255 0.052537 0.059819
-113.936 159.223 -74.4862 0.712778 0.701263 -0.013337 0 255 255 255 0.052559 0.151059
-64.8569 109.305 -76.249 0.712778 0.701263 -0.013337 0 255 255 255 0.051922 0.120879
-118.469 163.682 -82.3146 0.712778 0.701263 -0.013337 0 255 255 255 0.052619 0.153781
-124.076 89.807 -39.0616 -0.6653002 0.4141791 0.6211532 0 255 255 255 0.053104 0.122912
-113.936 159.223 -74.4862 -0.6653002 0.4141791 0.6211532 0 255 255 255 0.052559 0.151059
-118.469 163.682 -82.3146 -0.6653002 0.4141791 0.6211532 0 255 255 255 0.052619 0.153781
-95.8311 84.0356 -110.351 -0.4914672 0.110673 -0.8638353 0 255 255 255 0.052618 0.115443
-135.003 76.3409 -89.0509 -0.4914672 0.110673 -0.8638353 0 255 255 255 0.053374 0.119031
-123.851 156.429 -85.1346 -0.4914672 0.110673 -0.8638353 0 255 255 255 0.052755 0.151603
-135.003 76.3409 -89.0509 -0.9756054 0.127088 0.1790051 0 255 255 255 0.053374 0.119031
-124.076 89.807 -39.0616 -0.9756054 0.127088 0.1790051 0 255 255 255 0.053104 0.122912
-123.851 156.429 -85.1346 -0.9756054 0.127088 0.1790051 0 255 255 255 0.052755 0.151603
-32.7056 12.3961 85.6494 0.4895912 -0.12741 0.8625933 0 255 255 255 0.052648 0.060114
-17.2109 -14.2359 72.9213 0.4895912 -0.12741 0.8625933 0 255 255 255 0.052349 0.047982
21.3032 -5.5807 52.3398 0.4895912 -0.12741 0.8625933 0 255 255 255 0.051606 0.051925
-24.0281 182.863 24.1068 0.398259 0.371369 -0.838734 0 255 255 255 0.05248 0.137774
6.90161 65.7886 -13.0443 0.398259 0.371369 -0.838734 0 255 255 255 0.051884 0.084438
-30.406 65.1849 -31.0265 0.398259 0.371369 -0.838734 0 255 255 255 0.052603 0.084163
31.4451 54.673 57.8244 0.4257639 -0.025959 0.9044619 0 255 255 255 0.05141 0.079374
-35.0791 166.564 92.3512 0.4257639 -0.025959 0.9044619 0 255 255 255 0.052694 0.130348
-32.6802 19.2664 86.9944 0.4257639 -0.025959 0.9044619 0 255 255 255 0.052647 0.063244
21.3032 -5.5807 52.3398 0.4872699 -0.7846068 0.3833539 0 255 255 255 0.051606 0.051925
-30.1538 -36.9076 53.6288 0.4872699 -0.7846068 0.3833539 0 255 255 255 0.052599 0.037653
12.0569 -37.4414 -1.11636 0.4872699 -0.7846068 0.3833539 0 255 255 255 0.051784 0.03741
-13.8125 -26.9844 -43.1959 0.7512515 -0.3620852 -0.5518293 0 255 255 255 0.052283 0.042174
34.5942 8.93502 -0.86448 0.7512515 -0.3620852 -0.5518293 0 255 255 255 0.05135 0.058538
12.0569 -37.4414 -1.11636 0.7512515 -0.3620852 -0.5518293 0 255 255 255 0.051784 0.03741
12.0569 -37.4414 -1.11636 0.643702 -0.5520501 0.5299891 0 255 255 255 0.051784 0.03741
-13.5122 -60.4127 6.01118 0.643702 -0.5520501 0.5299891 0 255 255 255 0.052278 0.026945
3.21777 -52.7699 -6.34738 0.643702 -0.5520501 0.5299891 0 255 255 255 0.051955 0.030427
-42.1294 -41.1479 -28.3277 -0.6594372 -0.7396072 0.134624 0 255 255 255 0.05283 0.035722
-13.5122 -60.4127 6.01118 -0.6594372 -0.7396072 0.134624 0 255 255 255 0.052278 0.026945
-30.1538 -36.9076 53.6288 -0.6594372 -0.7396072 0.134624 0 255 255 255 0.052599 0.037653
12.0569 -37.4414 -1.11636 0.7176828 -0.4296919 -0.5479929 0 255 255 255 0.051784 0.03741
-13.9958 -54.5932 -21.7875 0.7176828 -0.4296919 -0.5479929 0 255 255 255 0.052287 0.029596
-13.8125 -26.9844 -43.1959 0.7176828 -0.4296919 -0.5479929 0 255 255 255 0.052283 0.042174
-24.0281 182.863 24.1068 -0.4924932 0.7381452 -0.4610772 0 255 255 255 0.05248 0.137774
-40.2275 194.333 59.7716 -0.4924932 0.7381452 -0.4610772 0 255 255 255 0.052793 0.142999
-32.6392 201.013 62.3609 -0.4924932 0.7381452 -0.4610772 0 255 255 255 0.052647 0.146042
-58.0906 172.23 40.3339 -0.8225 0.55488 0.124908 0 255 255 255 0.053137 0.13293
-57.8015 167.108 64.9901 -0.8225 0.55488 0.124908 0 255 255 255 0.053132 0.130596
-40.2275 194.333 59.7716 -0.8225 0.55488 0.124908 0 255 255 255 0.052793 0.142999
-35.0791 166.564 92.3512 0.024463 0.655425 0.754864 0 255 255 255 0.052694 0.130348
-8.14722 195.021 66.7695 0.024463 0.655425 0.754864 0 255 255 255 0.052174 0.143313
-32.6392 201.013 62.3609 0.024463 0.655425 0.754864 0 255 255 255 0.052647 0.146042
-8.14722 195.021 66.7695 0.28223 0.889791 -0.358634 0 255 255 255 0.052174 0.143313
-24.0281 182.863 24.1068 0.28223 0.889791 -0.358634 0 255 255 255 0.05248 0.137774
-32.6392 201.013 62.3609 0.28223 0.889791 -0.358634 0 255 255 255 0.052647 0.146042
-72.8804 43.8441 -10.5975 -0.999465 -0.032707 9.9e-05 0 255 255 255 0.053423 0.074441
-71.7209 8.38752 -19.5303 -0.999465 -0.032707 9.9e-05 0 255 255 255 0.0534 0.058288
-72.2964 26.147 38.2066 -0.999465 -0.032707 9.9e-05 0 255 255 255 0.053411 0.066379
-81.3872 85.8598 24.8566 -0.985949 -0.160475 -0.046393 0 255 255 255 0.053587 0.093582
-72.8804 43.8441 -10.5975 -0.985949 -0.160475 -0.046393 0 255 255 255 0.053423 0.074441
-72.2964 26.147 38.2066 -0.985949 -0.160475 -0.046393 0 255 255 255 0.053411 0.066379
32.7017 59.8386 13.7258 0.8108357 0.4092059 -0.4184448 0 255 255 255 0.051386 0.081728
-24.0281 182.863 24.1068 0.8108357 0.4092059 -0.4184448 0 255 255 255 0.05248 0.137774
-8.14722 195.021 66.7695 0.8108357 0.4092059 -0.4184448 0 255 255 255 0.052174 0.143313
34.5942 8.93502 -0.86448 0.7266788 0.2141149 -0.6527578 0 255 255 255 0.05135 0.058538
6.90161 65.7886 -13.0443 0.7266788 0.2141149 -0.6527578 0 255 255 255 0.051884 0.084438
32.7017 59.8386 13.7258 0.7266788 0.2141149 -0.6527578 0 255 255 255 0.051386 0.081728
-30.406 65.1849 -31.0265 0.2874008 0.7294257 -0.6207567 0 255 255 255 0.052603 0.084163
6.90161 65.7886 -13.0443 0.2874008 0.7294257 -0.6207567 0 255 255 255 0.051884 0.084438
-14.0022 43.4117 -49.0165 0.2874008 0.7294257 -0.6207567 0 255 255 255 0.052287 0.074244
-42.1294 -41.1479 -28.3277 -0.2111529 -0.7479357 -0.6292907 0 255 255 255 0.05283 0.035722
-13.9958 -54.5932 -21.7875 -0.2111529 -0.7479357 -0.6292907 0 255 255 255 0.052287 0.029596
-20.4951 -57.278 -16.4157 -0.2111529 -0.7479357 -0.6292907 0 255 255 255 0.052412 0.028373
31.4451 54.673 57.8244 0.9617473 0.2675651 0.05874602 0 255 255 255 0.05141 0.079374
32.7017 59.8386 13.7258 0.9617473 0.2675651 0.05874602 0 255 255 255 0.051386 0.081728
-8.14722 195.021 66.7695 0.9617473 0.2675651 0.05874602 0 255 255 255 0.052174 0.143313
34.5942 8.93502 -0.86448 0.9647839 -0.179863 0.191941 0 255 255 255 0.05135 0.058538
31.4451 54.673 57.8244 0.9647839 -0.179863 0.191941 0 255 255 255 0.05141 0.079374
21.3032 -5.5807 52.3398 0.9647839 -0.179863 0.191941 0 255 255 255 0.051606 0.051925
12.0569 -37.4414 -1.11636 0.8942547 -0.4351459 0.104674 0 255 255 255 0.051784 0.03741
34.5942 8.93502 -0.86448 0.8942547 -0.4351459 0.104674 0 255 255 255 0.05135 0.058538
21.3032 -5.5807 52.3398 0.8942547 -0.4351459 0.104674 0 255 255 255 0.051606 0.051925
-17.2109 -14.2359 72.9213 -0.266427 -0.537412 0.8001281 0 255 255 255 0.052349 0.047982
-32.7056 12.3961 85.6494 -0.266427 -0.537412 0.8001281 0 255 255 255 0.052648 0.060114
-44.2002 -12.6062 65.0291 -0.266427 -0.537412 0.8001281 0 255 255 255 0.052869 0.048724
-30.1538 -36.9076 53.6288 -0.267151 -0.5315031 0.8038251 0 255 255 255 0.052599 0.037653
-17.2109 -14.2359 72.9213 -0.267151 -0.5315031 0.8038251 0 255 255 255 0.052349 0.047982
-44.2002 -12.6062 65.0291 -0.267151 -0.5315031 0.8038251 0 255 255 255 0.052869 0.048724
-81.3872 85.8598 24.8566 -0.9663554 0.2493439 0.06312596 0 255 255 255 0.053587 0.093582
-57.8015 167.108 64.9901 -0.9663554 0.2493439 0.06312596 0 255 255 255 0.053132 0.130596
-58.0906 172.23 40.3339 -0.9663554 0.2493439 0.06312596 0 255 255 255 0.053137 0.13293
-40.2275 194.333 59.7716 -0.6496843 0.5248122 0.5499842 0 255 255 255 0.052793 0.142999
-35.0791 166.564 92.3512 -0.6496843 0.5248122 0.5499842 0 255 255 255 0.052694 0.130348
-32.6392 201.013 62.3609 -0.6496843 0.5248122 0.5499842 0 255 255 255 0.052647 0.146042
-30.1538 -36.9076 53.6288 -0.8369133 -0.5265132 0.1495321 0 255 255 255 0.052599 0.037653
-71.7209 8.38752 -19.5303 -0.8369133 -0.5265132 0.1495321 0 255 255 255 0.0534 0.058288
-42.1294 -41.1479 -28.3277 -0.8369133 -0.5265132 0.1495321 0 255 255 255 0.05283 0.035722
-72.2964 26.147 38.2066 -0.7789621 -0.117694 0.615927 0 255 255 255 0.053411 0.066379
-32.7056 12.3961 85.6494 -0.7789621 -0.117694 0.615927 0 255 255 255 0.052648 0.060114
-32.6802 19.2664 86.9944 -0.7789621 -0.117694 0.615927 0 255 255 255 0.052647 0.063244
-32.6802 19.2664 86.9944 -0.8042609 -0.034674 0.5932639 0 255 255 255 0.052647 0.063244
-35.0791 166.564 92.3512 -0.8042609 -0.034674 0.5932639 0 255 255 255 0.052694 0.130348
-81.3872 85.8598 24.8566 -0.8042609 -0.034674 0.5932639 0 255 255 255 0.053587 0.093582
-30.406 65.1849 -31.0265 -0.6188182 0.3605191 -0.6979183 0 255 255 255 0.052603 0.084163
-81.3872 85.8598 24.8566 -0.6188182 0.3605191 -0.6979183 0 255 255 255 0.053587 0.093582
-24.0281 182.863 24.1068 -0.6188182 0.3605191 -0.6979183 0 255 255 255 0.05248 0.137774
-71.7209 8.38752 -19.5303 -0.553641 0.241407 -0.796997 0 255 255 255 0.0534 0.058288
-30.406 65.1849 -31.0265 -0.553641 0.241407 -0.796997 0 255 255 255 0.052603 0.084163
-14.0022 43.4117 -49.0165 -0.553641 0.241407 -0.796997 0 255 255 255 0.052287 0.074244
-72.2964 26.147 38.2066 -0.846673 -0.51091 0.148714 0 255 255 255 0.053411 0.066379
-71.7209 8.38752 -19.5303 -0.846673 -0.51091 0.148714 0 255 255 255 0.0534 0.058288
-44.2002 -12.6062 65.0291 -0.846673 -0.51091 0.148714 0 255 255 255 0.052869 0.048724
-14.0022 43.4117 -49.0165 0.6814029 -0.05848799 -0.7295679 0 255 255 255 0.052287 0.074244
34.5942 8.93502 -0.86448 0.6814029 -0.05848799 -0.7295679 0 255 255 255 0.05135 0.058538
-13.8125 -26.9844 -43.1959 0.6814029 -0.05848799 -0.7295679 0 255 255 255 0.052283 0.042174
-71.7209 8.38752 -19.5303 -0.4254282 -0.09429305 -0.9000665 0 255 255 255 0.0534 0.058288
-13.8125 -26.9844 -43.1959 -0.4254282 -0.09429305 -0.9000665 0 255 255 255 0.052283 0.042174
-42.1294 -41.1479 -28.3277 -0.4254282 -0.09429305 -0.9000665 0 255 255 255 0.05283 0.035722
3.21777 -52.7699 -6.34738 0.253141 -0.9524202 -0.169751 0 255 255 255 0.051955 0.030427
-20.4951 -57.278 -16.4157 0.253141 -0.9524202 -0.169751 0 255 255 255 0.052412 0.028373
-13.9958 -54.5932 -21.7875 0.253141 -0.9524202 -0.169751 0 255 255 255 0.052287 0.029596
88.8271 -86.2692 -46.4816 0.9566671 -0.277173 -0.089237 0 255 255 255 0.051762 0.03202
111.156 -6.92972 -53.5414 0.9566671 -0.277173 -0.089237 0 255 255 255 0.051609 0.08362
108.702 -30.6161 -6.27708 0.9566671 -0.277173 -0.089237 0 255 255 255 0.051548 0.068966
88.8271 -86.2692 -46.4816 0.2483609 -0.149229 -0.9571038 0 255 255 255 0.051762 0.03202
43.8965 -79.7209 -59.1618 0.2483609 -0.149229 -0.9571038 0 255 255 255 0.052938 0.027947
65.7893 4.10641 -66.5509 0.2483609 -0.149229 -0.9571038 0 255 255 255 0.05282 0.082163
43.8965 -79.7209 -59.1618 -0.7958654 0.04639902 -0.6036932 0 255 255 255 0.052938 0.027947
27.6462 -76.2925 -37.4752 -0.7958654 0.04639902 -0.6036932 0 255 255 255 0.053369 0.02711
33.5571 -8.65506 -40.0691 -0.7958654 0.04639902 -0.6036932 0 255 255 255 0.053572 0.068762
27.6462 -76.2925 -37.4752 -0.8948673 0.12059 0.4297332 0 255 255 255 0.053369 0.02711
47.5476 -77.4825 4.30095 -0.8948673 0.12059 0.4297332 0 255 255 255 0.052857 0.029941
58.7874 -27.9708 13.8126 -0.8948673 0.12059 0.4297332 0 255 255 255 0.05283 0.061662
87.855 -86.6597 -12.2522 0.3531081 -0.2280851 0.9073543 0 255 255 255 0.051784 0.031613
108.702 -30.6161 -6.27708 0.3531081 -0.2280851 0.9073543 0 255 255 255 0.051548 0.068966
58.7874 -27.9708 13.8126 0.3531081 -0.2280851 0.9073543 0 255 255 255 0.05283 0.061662
111.156 -6.92972 -53.5414 0.9963322 -0.08028302 -0.02961101 0 255 255 255 0.051609 0.08362
115.772 48.7249 -49.1027 0.9963322 -0.08028302 -0.02961101 0 255 255 255 0.051783 0.117849
117.003 47.6331 -4.73233 0.9963322 -0.08028302 -0.02961101 0 255 255 255 0.051746 0.117413
65.7893 4.10641 -66.5509 0.2727979 0.06963897 -0.9595476 0 255 255 255 0.05282 0.082163
85.9934 62.0557 -56.6012 0.2727979 0.06963897 -0.9595476 0 255 255 255 0.05261 0.120546
115.772 48.7249 -49.1027 0.2727979 0.06963897 -0.9595476 0 255 255 255 0.051783 0.117849
65.7893 4.10641 -66.5509 -0.6737463 0.3368942 -0.6576993 0 255 255 255 0.05282 0.082163
33.5571 -8.65506 -40.0691 -0.6737463 0.3368942 -0.6576993 0 255 255 255 0.053572 0.068762
62.1775 67.1837 -30.5409 -0.6737463 0.3368942 -0.6576993 0 255 255 255 0.053242 0.119382
33.5571 -8.65506 -40.0691 -0.8275262 0.2786651 0.4873871 0 255 255 255 0.053572 0.068762
58.7874 -27.9708 13.8126 -0.8275262 0.2786651 0.4873871 0 255 255 255 0.05283 0.061662
82.2556 55.6106 5.87104 -0.8275262 0.2786651 0.4873871 0 255 255 255 0.052671 0.116012
108.702 -30.6161 -6.27708 0.281267 -0.048758 0.9583901 0 255 255 255 0.051548 0.068966
117.003 47.6331 -4.73233 0.281267 -0.048758 0.9583901 0 255 255 255 0.051746 0.117413
82.2556 55.6106 5.87104 0.281267 -0.048758 0.9583901 0 255 255 255 0.052671 0.116012
-75.8772 -91.4479 -7.47352 -0.9074253 -0.2609531 0.3293672 0 255 255 255 0.053163 0.036248
-110.938 16.5929 -18.4681 -0.9074253 -0.2609531 0.3293672 0 255 255 255 0.053244 0.089022
-115.332 -27.8729 -65.8048 -0.9074253 -0.2609531 0.3293672 0 255 255 255 0.053554 0.070621
-75.8772 -91.4479 -7.47352 -0.08068597 0.08000397 0.9935237 0 255 255 255 0.053163 0.036248
-19.0999 -79.3907 -3.83343 -0.08068597 0.08000397 0.9935237 0 255 255 255 0.052064 0.031437
-54.0862 34.7375 -15.865 -0.08068597 0.08000397 0.9935237 0 255 255 255 0.052112 0.086823
-19.0999 -79.3907 -3.83343 0.8738281 0.215954 0.435647 0 255 255 255 0.052064 0.031437
-4.34644 -80.7244 -32.765 0.8738281 0.215954 0.435647 0 255 255 255 0.051801 0.02826
-18.9604 10.4164 -48.6313 0.8738281 0.215954 0.435647 0 255 255 255 0.051596 0.070141
-4.34644 -80.7244 -32.765 0.7874391 0.04246201 -0.6149281 0 255 255 255 0.051801 0.02826
-37.4817 -93.5659 -76.0826 0.7874391 0.04246201 -0.6149281 0 255 255 255 0.052473 0.028565
-59.0706 -29.918 -99.333 0.7874391 0.04246201 -0.6149281 0 255 255 255 0.052537 0.059819
-82.0151 -101.238 -46.5506 -0.4759942 -0.4190781 -0.7731773 0 255 255 255 0.053326 0.033109
-115.332 -27.8729 -65.8048 -0.4759942 -0.4190781 -0.7731773 0 255 255 255 0.053554 0.070621
-59.0706 -29.918 -99.333 -0.4759942 -0.4190781 -0.7731773 0 255 255 255 0.052537 0.059819
-110.938 16.5929 -18.4681 -0.96512 -0.105841 0.23946 0 255 255 255 0.053244 0.089022
-124.076 89.807 -39.0616 -0.96512 -0.105841 0.23946 0 255 255 255 0.053104 0.122912
-135.003 76.3409 -89.0509 -0.96512 -0.105841 0.23946 0 255 255 255 0.053374 0.119031
-54.0862 34.7375 -15.865 -0.109842 0.2640311 0.9582392 0 255 255 255 0.052112 0.086823
-87.6992 109.572 -40.3378 -0.109842 0.2640311 0.9582392 0 255 255 255 0.052338 0.125022
-124.076 89.807 -39.0616 -0.109842 0.2640311 0.9582392 0 255 255 255 0.053104 0.122912
-54.0862 34.7375 -15.865 0.7531231 0.4762851 0.4538261 0 255 255 255 0.052112 0.086823
-18.9604 10.4164 -48.6313 0.7531231 0.4762851 0.4538261 0 255 255 255 0.051596 0.070141
-64.8569 109.305 -76.249 0.7531231 0.4762851 0.4538261 0 255 255 255 0.051922 0.120879
-18.9604 10.4164 -48.6313 0.7073283 0.1616401 -0.6881563 0 255 255 255 0.051596 0.070141
-59.0706 -29.918 -99.333 0.7073283 0.1616401 -0.6881563 0 255 255 255 0.052537 0.059819
-95.8311 84.0356 -110.351 0.7073283 0.1616401 -0.6881563 0 255 255 255 0.052618 0.115443
-115.332 -27.8729 -65.8048 -0.4178529 -0.2722139 -0.8667748 0 255 255 255 0.053554 0.070621
-135.003 76.3409 -89.0509 -0.4178529 -0.2722139 -0.8667748 0 255 255 255 0.053374 0.119031
-95.8311 84.0356 -110.351 -0.4178529 -0.2722139 -0.8667748 0 255 255 255 0.052618 0.115443
21.3032 -5.5807 52.3398 0.4803272 -0.1593561 0.8624914 0 255 255 255 0.051606 0.051925
31.4451 54.673 57.8244 0.4803272 -0.1593561 0.8624914 0 255 255 255 0.05141 0.079374
-32.6802 19.2664 86.9944 0.4803272 -0.1593561 0.8624914 0 255 255 255 0.052647 0.063244
-32.6802 19.2664 86.9944 0.4754471 -0.170702 0.8630242 0 255 255 255 0.052647 0.063244
-32.7056 12.3961 85.6494 0.4754471 -0.170702 0.8630242 0 255 255 255 0.052648 0.060114
21.3032 -5.5807 52.3398 0.4754471 -0.170702 0.8630242 0 255 255 255 0.051606 0.051925
31.4451 54.673 57.8244 0.61213 0.122895 0.781149 0 255 255 255 0.05141 0.079374
-8.14722 195.021 66.7695 0.61213 0.122895 0.781149 0 255 255 255 0.052174 0.143313
-35.0791 166.564 92.3512 0.61213 0.122895 0.781149 0 255 255 255 0.052694 0.130348
21.3032 -5.5807 52.3398 0.4480511 -0.7138141 0.5382561 0 255 255 255 0.051606 0.051925
-17.2109 -14.2359 72.9213 0.4480511 -0.7138141 0.5382561 0 255 255 255 0.052349 0.047982
-30.1538 -36.9076 53.6288 0.4480511 -0.7138141 0.5382561 0 255 255 255 0.052599 0.037653
12.0569 -37.4414 -1.11636 0.6500252 -0.5663091 0.5067161 0 255 255 255 0.051784 0.03741
-30.1538 -36.9076 53.6288 0.6500252 -0.5663091 0.5067161 0 255 255 255 0.052599 0.037653
-13.5122 -60.4127 6.01118 0.6500252 -0.5663091 0.5067161 0 255 255 255 0.052278 0.026945
-42.1294 -41.1479 -28.3277 -0.6256448 -0.7753048 0.08643498 0 255 255 255 0.05283 0.035722
-20.4951 -57.278 -16.4157 -0.6256448 -0.7753048 0.08643498 0 255 255 255 0.052412 0.028373
-13.5122 -60.4127 6.01118 -0.6256448 -0.7753048 0.08643498 0 255 255 255 0.052278 0.026945
12.0569 -37.4414 -1.11636 0.669428 -0.136846 -0.730164 0 255 255 255 0.051784 0.03741
3.21777 -52.7699 -6.34738 0.669428 -0.136846 -0.730164 0 255 255 255 0.051955 0.030427
-13.9958 -54.5932 -21.7875 0.669428 -0.136846 -0.730164 0 255 255 255 0.052287 0.029596
-24.0281 182.863 24.1068 -0.4551681 0.7664291 -0.4532201 0 255 255 255 0.05248 0.137774
-58.0906 172.23 40.3339 -0.4551681 0.7664291 -0.4532201 0 255 255 255 0.053137 0.13293
-40.2275 194.333 59.7716 -0.4551681 0.7664291 -0.4532201 0 255 255 255 0.052793 0.142999
32.7017 59.8386 13.7258 0.7074162 0.3766732 -0.5980632 0 255 255 255 0.051386 0.081728
6.90161 65.7886 -13.0443 0.7074162 0.3766732 -0.5980632 0 255 255 255 0.051884 0.084438
-24.0281 182.863 24.1068 0.7074162 0.3766732 -0.5980632 0 255 255 255 0.05248 0.137774
34.5942 8.93502 -0.86448 0.7644971 0.244606 -0.5964161 0 255 255 255 0.05135 0.058538
-14.0022 43.4117 -49.0165 0.7644971 0.244606 -0.5964161 0 255 255 255 0.052287 0.074244
6.90161 65.7886 -13.0443 0.7644971 0.244606 -0.5964161 0 255 255 255 0.051884 0.084438
-42.1294 -41.1479 -28.3277 -0.108205 -0.6087329 -0.7859618 0 255 255 255 0.05283 0.035722
-13.8125 -26.9844 -43.1959 -0.108205 -0.6087329 -0.7859618 0 255 255 255 0.052283 0.042174
-13.9958 -54.5932 -21.7875 -0.108205 -0.6087329 -0.7859618 0 255 255 255 0.052287 0.029596
34.5942 8.93502 -0.86448 0.9991022 0.02804501 0.03175401 0 255 255 255 0.05135 0.058538
32.7017 59.8386 13.7258 0.9991022 0.02804501 0.03175401 0 255 255 255 0.051386 0.081728
31.4451 54.673 57.8244 0.9991022 0.02804501 0.03175401 0 255 255 255 0.05141 0.079374
-40.2275 194.333 59.7716 -0.6496902 0.5248081 0.5499811 0 255 255 255 0.052793 0.142999
-57.8015 167.108 64.9901 -0.6496902 0.5248081 0.5499811 0 255 255 255 0.053132 0.130596
-35.0791 166.564 92.3512 -0.6496902 0.5248081 0.5499811 0 255 255 255 0.052694 0.130348
-30.1538 -36.9076 53.6288 -0.8290609 -0.5425879 0.135117 0 255 255 255 0.052599 0.037653
-44.2002 -12.6062 65.0291 -0.8290609 -0.5425879 0.135117 0 255 255 255 0.052869 0.048724
-71.7209 8.38752 -19.5303 -0.8290609 -0.5425879 0.135117 0 255 255 255 0.0534 0.058288
-72.2964 26.147 38.2066 -0.7799092 -0.143827 0.6091431 0 255 255 255 0.053411 0.066379
-44.2002 -12.6062 65.0291 -0.7799092 -0.143827 0.6091431 0 255 255 255 0.052869 0.048724
-32.7056 12.3961 85.6494 -0.7799092 -0.143827 0.6091431 0 255 255 255 0.052648 0.060114
-57.8015 167.108 64.9901 -0.7669976 -0.09108795 0.6351517 0 255 255 255 0.053132 0.130596
-81.3872 85.8598 24.8566 -0.7669976 -0.09108795 0.6351517 0 255 255 255 0.053587 0.093582
-35.0791 166.564 92.3512 -0.7669976 -0.09108795 0.6351517 0 255 255 255 0.052694 0.130348
-72.2964 26.147 38.2066 -0.7744672 0.02343 0.6321802 0 255 255 255 0.053411 0.066379
-32.6802 19.2664 86.9944 -0.7744672 0.02343 0.6321802 0 255 255 255 0.052647 0.063244
-81.3872 85.8598 24.8566 -0.7744672 0.02343 0.6321802 0 255 255 255 0.053587 0.093582
-58.0906 172.23 40.3339 -0.4825959 0.2789469 -0.8302348 0 255 255 255 0.053137 0.13293
-24.0281 182.863 24.1068 -0.4825959 0.2789469 -0.8302348 0 255 255 255 0.05248 0.137774
-81.3872 85.8598 24.8566 -0.4825959 0.2789469 -0.8302348 0 255 255 255 0.053587 0.093582
-30.406 65.1849 -31.0265 -0.562315 0.463827 -0.6845921 0 255 255 255 0.052603 0.084163
-72.8804 43.8441 -10.5975 -0.562315 0.463827 -0.6845921 0 255 255 255 0.053423 0.074441
-81.3872 85.8598 24.8566 -0.562315 0.463827 -0.6845921 0 255 255 255 0.053587 0.093582
-71.7209 8.38752 -19.5303 -0.503153 0.19562 -0.8417659 0 255 255 255 0.0534 0.058288
-72.8804 43.8441 -10.5975 -0.503153 0.19562 -0.8417659 0 255 255 255 0.053423 0.074441
-30.406 65.1849 -31.0265 -0.503153 0.19562 -0.8417659 0 255 255 255 0.052603 0.084163
-71.7209 8.38752 -19.5303 -0.4166469 -0.07602499 -0.9058839 0 255 255 255 0.0534 0.058288
-14.0022 43.4117 -49.0165 -0.4166469 -0.07602499 -0.9058839 0 255 255 255 0.052287 0.074244
-13.8125 -26.9844 -43.1959 -0.4166469 -0.07602499 -0.9058839 0 255 255 255 0.052283 0.042174
3.21777 -52.7699 -6.34738 0.2698011 -0.9385622 -0.215194 0 255 255 255 0.051955 0.030427
-13.5122 -60.4127 6.01118 0.2698011 -0.9385622 -0.215194 0 255 255 255 0.052278 0.026945
-20.4951 -57.278 -16.4157 0.2698011 -0.9385622 -0.215194 0 255 255 255 0.052412 0.028373
3 0 1 2 
3 3 4 5 
3 6 7 8 
3 9 10 11 
3 12 13 14 
3 15 16 17 
3 18 19 20 
3 21 22 23 
3 24 25 26 
3 27 28 29 
3 30 31 32 
3 33 34 35 
3 36 37 38 
3 39 40 41 
3 42 43 44 
3 45 46 47 
3 48 49 50 
3 51 52 53 
3 54 55 56 
3 57 58 59 
3 60 61 62 
3 63 64 65 
3 66 67 68 
3 69 70 71 
3 72 73 74 
3 75 76 77 
3 78 79 80 
3 81 82 83 
3 84 85 86 
3 87 88 89 
3 90 91 92 
3 93 94 95 
3 96 97 98 
3 99 100 101 
3 102 103 104 
3 105 106 107 
3 108 109 110 
3 111 112 113 
3 114 115 116 
3 117 118 119 
3 120 121 122 
3 123 124 125 
3 126 127 128 
3 129 130 131 
3 132 133 134 
3 135 136 137 
3 138 139 140 
3 141 142 143 
3 144 145 146 
3 147 148 149 
3 150 151 152 
3 153 154 155 
3 156 157 158 
3 159 160 161 
3 162 163 164 
3 165 166 167 
3 168 169 170 
3 171 172 173 
3 174 175 176 
3 177 178 179 
3 180 181 182 
3 183 184 185 
3 186 187 188 
3 189 190 191 
3 192 193 194 
3 195 196 197 
3 198 199 200 
3 201 202 203 
3 204 205 206 
3 207 208 209 
3 210 211 212 
3 213 214 215 
3 216 217 218 
3 219 220 221 
3 222 223 224 
3 225 226 227 
3 228 229 230 
3 231 232 233 
3 234 235 236 
3 237 238 239 
3 240 241 242 
3 243 244 245 
3 246 247 248 
3 249 250 251 
3 252 253 254 
3 255 256 257 
3 258 259 260 
3 261 262 263 
3 264 265 266 
3 267 268 269 
3 270 271 272 
3 273 274 275 
3 276 277 278 
3 279 280 281 
3 282 283 284 
3 285 286 287 
3 288 289 290 
3 291 292 293 
3 294 295 296 
3 297 298 299 
3 300 301 302 
3 303 304 305 
3 306 307 308 
3 309 310 311 
3 312 313 314 
3 315 316 317 
3 318 319 320 
3 321 322 323 
3 324 325 326 
3 327 328 329 
3 330 331 332 
3 333 334 335 
3 336 337 338 
3 339 340 341 
3 342 343 344 
3 345 346 347 
3 348 349 350 
3 351 352 353 
3 354 355 356 
3 357 358 359 
3 360 361 362 
3 363 364 365 
3 366 367 368 
3 369 370 371 
